<svg width="1920" height="1964" viewBox="0 0 1920 1964" fill="none" xmlns="http://www.w3.org/2000/svg">
<g opacity="0.1">
<path d="M1624.38 2003C1569.39 2003 1513.94 2002.92 1459.05 2002.62C1075.92 2000.55 686.356 2001.43 309.625 2002.3C208.34 2002.52 103.613 2002.76 0.59928 2002.94V1998.18C103.606 1998 208.34 1997.77 309.618 1997.54C515.276 1997.08 724.814 1996.59 934.987 1996.59C1109.82 1996.59 1285.07 1996.92 1459.05 1997.86C1549.68 1998.35 1641.82 1998.25 1730.94 1998.17C1792.58 1998.11 1856.3 1998.05 1918.99 1998.17L1918.98 2002.93C1856.3 2002.8 1792.57 2002.86 1730.94 2002.93C1695.81 2002.96 1660.19 2003 1624.38 2003Z" fill="#FAC515"/>
<path d="M1595.76 1968.98C1548.68 1968.98 1501.38 1967.81 1454.47 1964.21C1416.85 1961.32 1378.47 1956.97 1341.35 1952.75C1257.16 1943.19 1170.09 1933.3 1084.88 1939.69C1044 1942.76 1002.39 1947.58 962.164 1952.24C899.769 1959.47 835.256 1966.94 771.774 1968.08C693.91 1969.48 614.728 1963.24 538.146 1957.22C483.165 1952.89 426.311 1948.42 370.431 1946.8C297.974 1944.71 224.298 1951 153.039 1957.09C103.09 1961.36 51.4335 1965.77 0.627148 1967.26L0.578375 1962.5C51.3429 1961.02 102.971 1956.6 152.9 1952.35C224.2 1946.26 297.932 1939.96 370.48 1942.05C426.401 1943.66 483.27 1948.13 538.271 1952.46C614.805 1958.49 693.951 1964.71 771.739 1963.32C835.144 1962.18 899.623 1954.71 961.969 1947.49C1002.22 1942.83 1043.84 1938.01 1084.76 1934.93C1170.12 1928.53 1257.27 1938.43 1341.54 1947.99C1378.64 1952.2 1417.01 1956.56 1454.6 1959.45C1546.17 1966.47 1639.27 1964.25 1729.3 1962.1C1791.48 1960.61 1855.76 1959.08 1919.02 1960.6L1918.98 1965.36C1855.75 1963.83 1791.49 1965.37 1729.34 1966.86C1685.37 1967.91 1640.66 1968.98 1595.76 1968.98Z" fill="#FAC515"/>
<path d="M1575.3 1936.9C1534.78 1936.9 1494.17 1934.97 1453.8 1929.57C1410.47 1923.78 1366.53 1916.16 1324.04 1908.8C1301.59 1904.91 1278.38 1900.89 1255.55 1897.18C1249.91 1896.27 1244.27 1895.34 1238.62 1894.4C1185.28 1885.57 1130.12 1876.45 1076.05 1883.83C1035.14 1889.4 993.626 1898.09 953.474 1906.48C897.853 1918.12 840.336 1930.14 783.467 1934.14C729.337 1937.94 673.583 1930.19 619.662 1922.68C605.349 1920.7 590.555 1918.63 576.123 1916.84C566.855 1915.69 557.587 1914.52 548.32 1913.37C484.169 1905.32 417.83 1896.99 352.453 1893.46C284.226 1889.77 215.072 1901.36 148.189 1912.56C99.8775 1920.65 49.9214 1929.02 0.655028 1931.59L0.5714 1926.83C49.7402 1924.28 99.6546 1915.92 147.917 1907.83C214.883 1896.61 284.128 1885 352.536 1888.7C417.976 1892.23 484.343 1900.57 548.522 1908.62C557.79 1909.79 567.057 1910.96 576.325 1912.1C590.771 1913.89 605.572 1915.95 619.885 1917.94C673.722 1925.43 729.393 1933.18 783.349 1929.38C840.106 1925.38 897.567 1913.37 953.133 1901.75C993.312 1893.35 1034.86 1884.66 1075.82 1879.07C1130.14 1871.66 1185.43 1880.81 1238.89 1889.65C1244.54 1890.59 1250.17 1891.52 1255.81 1892.44C1278.66 1896.15 1301.87 1900.17 1324.32 1904.06C1366.8 1911.42 1410.73 1919.03 1454.02 1924.81C1545.84 1937.09 1639.07 1931.39 1729.23 1925.88C1791.39 1922.09 1855.67 1918.16 1919.02 1920.13L1918.98 1924.88C1855.69 1922.91 1791.45 1926.83 1729.32 1930.63C1678.69 1933.74 1627.08 1936.9 1575.3 1936.9Z" fill="#FAC515"/>
<path d="M1560.56 1906.66C1524.66 1906.66 1488.67 1904.19 1452.8 1897.63C1408.7 1889.58 1364.06 1878.84 1320.9 1868.46C1298.11 1862.98 1274.55 1857.32 1251.35 1852.11C1245.32 1850.75 1239.26 1849.36 1233.2 1847.97C1180.02 1835.75 1125.04 1823.12 1071.48 1833.3C1032.34 1840.75 992.72 1852.69 954.408 1864.25C901.999 1880.06 847.806 1896.4 793.885 1901.51C763.983 1904.34 733.1 1899.85 703.233 1895.48C696.453 1894.49 689.436 1893.47 682.607 1892.56C646.42 1887.74 611.028 1881.71 578.172 1875.9C568.653 1874.23 559.128 1872.53 549.609 1870.83C482.789 1858.9 413.698 1846.58 345.45 1841.39C278.616 1836.32 211.295 1852.76 146.189 1868.67C98.6093 1880.29 49.4057 1892.32 0.668957 1895.9L0.550496 1891.14C49.1479 1887.57 98.2818 1875.57 145.799 1863.96C211.03 1848.03 278.484 1831.55 345.575 1836.64C413.907 1841.83 483.04 1854.18 549.901 1866.1C559.42 1867.81 568.939 1869.51 578.458 1871.18C611.3 1876.98 646.671 1883.01 682.823 1887.82C689.666 1888.74 696.683 1889.76 703.47 1890.75C733.246 1895.1 764.032 1899.59 793.731 1896.77C847.485 1891.66 901.595 1875.35 953.927 1859.56C992.281 1848 1031.94 1836.04 1071.18 1828.58C1125.08 1818.33 1180.24 1831.01 1233.58 1843.26C1239.64 1844.65 1245.69 1846.04 1251.73 1847.4C1274.94 1852.61 1298.51 1858.28 1321.29 1863.75C1364.43 1874.13 1409.05 1884.86 1453.11 1892.9C1545.6 1909.79 1639.12 1899.51 1729.55 1889.58C1791.53 1882.77 1855.62 1875.73 1919.02 1877.43L1918.98 1882.18C1855.69 1880.48 1791.66 1887.53 1729.74 1894.33C1674.2 1900.43 1617.5 1906.66 1560.56 1906.66Z" fill="#FAC515"/>
<path d="M1560.98 1879.56C1523.03 1879.56 1487.53 1875.67 1453.09 1867.9C1408.83 1857.91 1364.15 1844.4 1320.96 1831.33C1298.15 1824.43 1274.56 1817.29 1251.32 1810.76C1245.65 1809.17 1239.94 1807.53 1234.22 1805.89C1180.95 1790.59 1125.87 1774.79 1072.58 1787.18C1034.61 1796 996.337 1810.69 959.321 1824.89C909.267 1844.09 857.513 1863.95 805.605 1869.71C774.833 1873.11 742.814 1867.2 711.846 1861.48C705.393 1860.29 698.718 1859.05 692.237 1857.95C655.395 1851.63 619.46 1843.71 586.109 1836.1C576.527 1833.91 566.946 1831.7 557.365 1829.48C489.409 1813.78 419.133 1797.55 349.505 1790.83C281.877 1784.3 214.235 1805.23 148.823 1825.46C100.463 1840.43 50.4579 1855.89 0.675932 1860.25L0.536556 1855.51C50.1374 1851.17 100.052 1835.73 148.329 1820.79C213.901 1800.51 281.717 1779.54 349.665 1786.1C419.405 1792.83 489.73 1809.07 557.741 1824.79C567.322 1827 576.897 1829.21 586.478 1831.4C619.801 1839.01 655.716 1846.92 692.516 1853.24C699.003 1854.35 705.686 1855.58 712.146 1856.78C742.995 1862.48 774.903 1868.38 805.431 1865C857.123 1859.27 908.765 1839.45 958.714 1820.29C995.786 1806.07 1034.11 1791.37 1072.21 1782.52C1125.92 1770.03 1181.21 1785.91 1234.69 1801.25C1240.41 1802.89 1246.1 1804.52 1251.78 1806.11C1275.03 1812.64 1298.62 1819.79 1321.45 1826.69C1364.62 1839.75 1409.26 1853.25 1453.46 1863.23C1521.28 1878.53 1593.27 1878.7 1680.02 1863.77C1694.87 1861.22 1709.96 1858.47 1724.55 1855.8C1788.1 1844.21 1853.81 1832.23 1919.01 1833.12L1918.99 1837.88C1853.95 1836.95 1788.32 1848.94 1724.85 1860.53C1710.25 1863.19 1695.16 1865.95 1680.3 1868.51C1637.35 1875.86 1598 1879.56 1560.98 1879.56Z" fill="#FAC515"/>
<path d="M1553.05 1855.06C1517.68 1855.06 1483.66 1847.47 1454.35 1839.72C1410.39 1828.1 1366.17 1812.14 1323.4 1796.71C1300.83 1788.56 1277.48 1780.13 1254.47 1772.44C1249.8 1770.88 1245.11 1769.29 1240.4 1767.7C1186.78 1749.55 1131.34 1730.77 1077.87 1744.73C1040.44 1754.51 1002.89 1771.46 966.589 1787.84C918.012 1809.78 867.784 1832.45 816.971 1838.39C785.46 1842.08 752.527 1834.79 720.682 1827.74C715.031 1826.49 709.191 1825.19 703.526 1824C666.649 1816.26 629.376 1806.1 597.767 1797.19C588.304 1794.53 578.834 1791.83 569.371 1789.13C501.618 1769.81 431.565 1749.83 361.86 1741.75C291.947 1733.63 222.353 1758.65 155.06 1782.85C104.728 1800.95 52.6739 1819.66 0.675932 1824.51L0.522627 1819.77C52.3115 1814.93 104.254 1796.25 154.482 1778.2C221.97 1753.94 291.751 1728.84 362.048 1737C431.885 1745.11 502.008 1765.1 569.824 1784.44C579.287 1787.14 588.75 1789.84 598.213 1792.51C629.787 1801.4 667.033 1811.55 703.853 1819.28C709.526 1820.47 715.372 1821.77 721.023 1823.01C752.736 1830.03 785.53 1837.29 816.769 1833.64C867.317 1827.72 917.42 1805.1 965.864 1783.23C1002.24 1766.81 1039.85 1749.82 1077.43 1740.01C1131.39 1725.91 1187.07 1744.77 1240.93 1763.01C1245.64 1764.6 1250.33 1766.19 1254.99 1767.74C1278.03 1775.44 1301.38 1783.86 1323.96 1792.02C1366.69 1807.45 1410.88 1823.39 1454.76 1834.99C1488.51 1843.91 1528.55 1852.63 1569.61 1849.69C1609.87 1846.8 1649.92 1838.2 1680.31 1831.02C1695.19 1827.5 1710.32 1823.73 1724.94 1820.09C1788.22 1804.31 1853.65 1787.99 1918.98 1787.75L1918.99 1792.51C1853.86 1792.74 1788.53 1809.04 1725.35 1824.8C1710.72 1828.45 1695.59 1832.22 1680.69 1835.74C1650.24 1842.94 1610.1 1851.56 1569.73 1854.45C1564.15 1854.87 1558.59 1855.06 1553.05 1855.06Z" fill="#FAC515"/>
<path d="M1549.49 1828.7C1515.81 1828.7 1483.87 1820.69 1456.28 1812.45C1412.93 1799.5 1369.51 1781.39 1327.51 1763.87C1305.36 1754.63 1282.45 1745.08 1259.85 1736.41C1256.83 1735.25 1253.82 1734.09 1250.79 1732.92C1196.46 1711.95 1140.28 1690.27 1085.92 1705.26C1048.36 1715.62 1010.87 1734.42 974.623 1752.62C926.625 1776.71 876.982 1801.62 826.35 1807.36C794.038 1811.04 760.283 1802.37 727.636 1793.99C723.253 1792.86 718.898 1791.75 714.578 1790.68C678.398 1781.64 641.912 1769.72 610.986 1759.25C601.781 1756.14 592.576 1752.98 583.37 1749.83C517.018 1727.12 448.414 1703.61 379.783 1694.37C305.995 1684.43 232.43 1713.32 161.29 1741.27C108.895 1761.85 54.7156 1783.12 0.689861 1788.87L0.515652 1784.12C54.3184 1778.4 108.379 1757.17 160.663 1736.64C232.012 1708.62 305.786 1679.65 379.999 1689.64C448.79 1698.9 517.485 1722.43 583.914 1745.18C593.119 1748.33 602.317 1751.49 611.523 1754.6C642.406 1765.06 678.851 1776.96 714.975 1785.98C719.295 1787.06 723.651 1788.18 728.041 1789.3C760.541 1797.63 794.142 1806.26 826.155 1802.63C876.481 1796.92 925.97 1772.07 973.829 1748.06C1010.16 1729.83 1047.74 1710.96 1085.47 1700.57C1140.36 1685.44 1196.8 1707.22 1251.39 1728.29C1254.42 1729.46 1257.44 1730.62 1260.45 1731.78C1283.08 1740.46 1306 1750.02 1328.16 1759.26C1370.11 1776.76 1413.5 1794.85 1456.75 1807.78C1489.82 1817.66 1529.14 1827.19 1570.12 1822.9C1610.33 1818.68 1650.3 1807.62 1680.63 1798.45C1695.57 1793.93 1710.73 1789.11 1725.4 1784.43C1788.35 1764.38 1853.45 1743.64 1918.96 1742.11L1919 1746.87C1853.72 1748.38 1788.74 1769.09 1725.91 1789.11C1711.23 1793.78 1696.06 1798.62 1681.11 1803.13C1650.71 1812.32 1610.64 1823.41 1570.29 1827.63C1563.3 1828.37 1556.36 1828.7 1549.49 1828.7Z" fill="#FAC515"/>
<path d="M1547.12 1802.13C1514.16 1802.13 1483.15 1793.53 1458.56 1785.43C1416.03 1771.41 1373.61 1751.45 1332.59 1732.15C1310.97 1721.97 1288.6 1711.44 1266.49 1701.91L1264.91 1701.24C1209.2 1677.23 1151.59 1652.41 1095.26 1667.97C1056.86 1678.58 1018.7 1698.92 981.814 1718.59C933.454 1744.37 883.442 1771.04 832.085 1776.26C798.602 1779.67 763.823 1769.47 730.187 1759.61C727.936 1758.96 725.699 1758.29 723.469 1757.65C688.488 1747.45 653.347 1733.93 623.585 1722.04C614.763 1718.52 605.948 1714.95 597.126 1711.38C533.198 1685.54 467.096 1658.8 400.507 1648.68C336.084 1638.88 272.059 1663.84 210.145 1687.97L207.783 1688.9C198.264 1692.61 188.571 1696.47 179.205 1700.2C121.194 1723.27 61.2101 1747.15 0.689861 1753.18L0.529592 1748.43C60.8129 1742.44 120.678 1718.61 178.571 1695.57C187.944 1691.85 197.637 1687.99 207.162 1684.28L209.525 1683.36C271.648 1659.14 335.889 1634.1 400.758 1643.96C467.542 1654.11 533.749 1680.89 597.774 1706.77C606.589 1710.33 615.404 1713.9 624.226 1717.42C653.946 1729.3 689.039 1742.82 723.943 1752.97C726.173 1753.63 728.417 1754.28 730.668 1754.94C764.144 1764.75 798.763 1774.9 831.925 1771.53C882.947 1766.34 932.792 1739.76 980.992 1714.07C1017.98 1694.35 1056.22 1673.95 1094.83 1663.3C1151.73 1647.58 1209.62 1672.52 1265.61 1696.64L1267.18 1697.32C1289.32 1706.86 1311.7 1717.39 1333.35 1727.58C1374.31 1746.86 1416.68 1766.79 1459.1 1780.78C1489.34 1790.75 1529.34 1801.46 1570.63 1795.84C1610.79 1790.35 1650.69 1776.9 1680.96 1765.79C1695.95 1760.29 1711.17 1754.4 1725.89 1748.71C1788.49 1724.5 1853.22 1699.46 1918.97 1696.75L1919.04 1701.51C1853.57 1704.21 1788.98 1729.2 1726.51 1753.35C1711.79 1759.05 1696.56 1764.94 1681.54 1770.44C1651.19 1781.59 1611.18 1795.08 1570.85 1800.58C1562.87 1801.65 1554.94 1802.13 1547.12 1802.13Z" fill="#FAC515"/>
<path d="M1544.75 1774.89C1519.79 1774.89 1492.93 1769.41 1460.91 1758.03C1419.23 1743.2 1377.88 1721.67 1337.9 1700.84C1316.82 1689.87 1295.02 1678.51 1273.45 1668.29C1215.81 1640.96 1159.49 1617.65 1104.44 1632.23C1064.45 1642.83 1024.86 1664.41 986.581 1685.3C936.903 1712.4 885.533 1740.43 832.531 1744.87C770.833 1750.05 704.578 1718.93 646.114 1691.49C641.842 1689.48 637.591 1687.5 633.382 1685.52C625.041 1681.64 616.7 1677.7 608.359 1673.75C547.72 1645.11 485.019 1615.51 421.279 1604.81C355.909 1593.86 290.455 1620.11 227.155 1645.5L220.556 1648.14C210.249 1652.27 199.755 1656.56 189.609 1660.73C128.246 1685.86 64.7849 1711.84 0.675932 1717.48L0.529592 1712.74C64.3877 1707.13 127.716 1681.19 188.954 1656.11C199.107 1651.95 209.601 1647.66 219.915 1643.53L226.514 1640.89C290.037 1615.41 355.721 1589.06 421.551 1600.09C485.535 1610.82 548.354 1640.48 609.105 1669.17C617.446 1673.11 625.78 1677.04 634.121 1680.93C638.337 1682.9 642.581 1684.89 646.859 1686.9C705.122 1714.26 771.154 1745.24 832.406 1740.13C885.045 1735.72 936.234 1707.78 985.745 1680.77C1024.13 1659.82 1063.82 1638.18 1104.03 1627.52C1159.63 1612.79 1216.25 1636.24 1274.2 1663.7C1295.81 1673.94 1317.62 1685.3 1338.71 1696.29C1378.63 1717.08 1419.92 1738.58 1461.48 1753.37C1504.84 1768.79 1538.64 1773.3 1571.07 1768.01C1610.96 1761.49 1649.14 1746.6 1681.24 1732.88C1696.3 1726.45 1711.58 1719.56 1726.36 1712.9C1788.59 1684.86 1852.95 1655.87 1918.95 1652.26L1919.05 1657.02C1853.36 1660.61 1789.16 1689.53 1727.07 1717.51C1712.29 1724.17 1697 1731.05 1681.92 1737.5C1649.73 1751.25 1611.42 1766.2 1571.35 1772.74C1562.62 1774.18 1553.81 1774.89 1544.75 1774.89Z" fill="#FAC515"/>
<path d="M1543.41 1746.23C1518.91 1746.23 1492.73 1740.77 1463.01 1729.59C1422.1 1714.2 1381.74 1691.35 1342.7 1669.24C1322.13 1657.6 1300.86 1645.55 1279.78 1634.75C1229.55 1609.02 1171.02 1582.79 1112.05 1597.21C1069.67 1607.59 1027.83 1630.23 987.368 1652.13C935.398 1680.26 881.658 1709.34 826.092 1712.84C822.81 1713.05 819.521 1713.15 816.232 1713.15C755.914 1713.15 693.582 1679.46 638.246 1649.55C630.456 1645.34 622.665 1641.07 614.874 1636.81C558.222 1605.78 499.639 1573.7 439.376 1562.84C373.177 1550.9 306.343 1578.22 241.719 1604.64C238.478 1605.96 235.245 1607.28 232.019 1608.6C220.981 1613.09 209.748 1617.78 198.884 1622.31C134.524 1649.18 67.9764 1676.95 0.675932 1681.8L0.557461 1677.04C67.5792 1672.22 133.995 1644.49 198.222 1617.68C209.093 1613.15 220.333 1608.45 231.371 1603.96C234.597 1602.65 237.83 1601.33 241.064 1600C305.918 1573.49 372.982 1546.08 439.662 1558.11C500.21 1569.03 558.932 1601.17 615.718 1632.28C623.508 1636.55 631.292 1640.8 639.083 1645.01C697.22 1676.44 763.126 1712.07 825.988 1708.1C881.177 1704.61 934.729 1675.63 986.525 1647.6C1027.09 1625.64 1069.05 1602.94 1111.66 1592.5C1171.18 1577.93 1230.07 1604.31 1280.59 1630.2C1301.71 1641.01 1323 1653.07 1343.58 1664.72C1382.55 1686.78 1422.85 1709.61 1463.62 1724.94C1504.76 1740.41 1539.03 1744.86 1571.46 1738.96C1611.31 1731.7 1649.43 1715.02 1681.47 1699.65C1696.59 1692.4 1711.93 1684.63 1726.76 1677.13C1788.66 1645.78 1852.67 1613.35 1918.95 1609.38L1919.05 1614.14C1853.12 1618.09 1789.29 1650.43 1727.55 1681.69C1712.71 1689.21 1697.37 1696.98 1682.23 1704.24C1650.07 1719.66 1611.8 1736.41 1571.75 1743.71C1562.49 1745.38 1553.07 1746.23 1543.41 1746.23Z" fill="#FAC515"/>
<path d="M1542.4 1715.64C1518.05 1715.64 1492.34 1710.27 1464.57 1699.48C1425.84 1684.41 1386.93 1660.61 1349.29 1637.58C1274.56 1591.86 1197.27 1544.59 1116.58 1562.28C1070.98 1572.29 1026.01 1595.83 982.518 1618.61C927.273 1647.54 870.147 1677.45 811.069 1679.98C808.7 1680.09 806.33 1680.14 803.975 1680.14C736.514 1680.14 672.781 1639.37 611.063 1599.89C559.803 1567.1 506.795 1533.19 451.996 1522.87C385.169 1510.28 317.283 1538.45 251.628 1565.7C247.913 1567.24 244.206 1568.78 240.513 1570.3C228.869 1575.1 217.009 1580.15 205.539 1585.01C139.026 1613.26 70.2481 1642.46 0.648053 1646.12L0.564436 1641.36C69.8648 1637.71 138.496 1608.57 204.87 1580.4C216.347 1575.52 228.207 1570.49 239.865 1565.67C243.558 1564.15 247.258 1562.62 250.98 1561.07C316.865 1533.73 384.995 1505.46 452.309 1518.13C507.45 1528.53 560.626 1562.53 612.052 1595.43C675.673 1636.13 741.469 1678.2 811.006 1675.22C869.694 1672.7 926.639 1642.89 981.703 1614.06C1025.31 1591.22 1070.4 1567.61 1116.23 1557.56C1197.6 1539.71 1275.2 1587.19 1350.24 1633.1C1387.79 1656.08 1426.63 1679.83 1465.2 1694.84C1504.18 1710 1539.03 1714.37 1571.74 1708.16C1611.57 1700.61 1649.65 1682.56 1681.65 1665.91C1696.82 1658.01 1712.2 1649.55 1727.08 1641.34C1788.7 1607.38 1852.41 1572.27 1918.96 1568.68L1919.05 1573.44C1852.89 1577.01 1789.37 1612.02 1727.94 1645.87C1713.05 1654.08 1697.65 1662.56 1682.46 1670.47C1650.35 1687.18 1612.11 1705.29 1572.05 1712.89C1562.36 1714.72 1552.49 1715.64 1542.4 1715.64Z" fill="#FAC515"/>
<path d="M1536.85 1680.79C1512.32 1680.79 1488.65 1676.22 1465.27 1667.03C1425.29 1651.31 1386.02 1626.96 1348.05 1603.42C1274.65 1557.92 1198.75 1510.87 1116.63 1526.65C1066.88 1536.21 1017.83 1560.57 970.4 1584.13C910.904 1613.69 849.381 1644.24 785.864 1645.93C784.589 1645.97 783.307 1645.98 782.038 1645.98C718.661 1645.98 660.845 1604.39 604.882 1564.13C557.525 1530.06 508.558 1494.83 456.456 1484.95C389.218 1472.2 320.775 1501.11 254.582 1529.08C251.202 1530.5 247.837 1531.92 244.485 1533.33C232.409 1538.41 220.103 1543.75 208.194 1548.93C140.831 1578.16 71.1679 1608.41 0.641088 1610.45L0.592304 1605.69C70.7916 1603.66 140.294 1573.49 207.504 1544.32C219.413 1539.15 231.726 1533.81 243.816 1528.72C247.168 1527.3 250.534 1525.89 253.913 1524.46C320.343 1496.4 389.03 1467.38 456.762 1480.22C509.269 1490.17 558.424 1525.53 605.969 1559.74C662.789 1600.62 721.546 1642.87 785.829 1641.17C848.977 1639.5 910.312 1609.02 969.634 1579.56C1017.18 1555.94 1066.35 1531.53 1116.33 1521.92C1153.49 1514.77 1192.5 1519.72 1235.61 1537.02C1274.02 1552.45 1312.14 1576.08 1349.02 1598.94C1386.91 1622.43 1426.1 1646.73 1465.92 1662.38C1548.01 1694.65 1624.38 1662.83 1681.74 1631.5C1696.95 1623.2 1712.37 1614.25 1727.28 1605.59C1788.7 1569.92 1852.2 1533.04 1919 1530.8L1919.05 1535.56C1852.69 1537.78 1789.39 1574.55 1728.17 1610.1C1713.25 1618.77 1697.82 1627.72 1682.59 1636.04C1641.96 1658.23 1607.78 1671.32 1575.04 1677.25C1562.01 1679.61 1549.32 1680.79 1536.85 1680.79Z" fill="#FAC515"/>
<path d="M1543.69 1643.42C1519.95 1643.42 1495.08 1638.21 1467.39 1627.58C1428.49 1612.65 1389.62 1589.7 1352.04 1567.49C1275.97 1522.57 1197.31 1476.11 1114.65 1494.09C1063.53 1505.19 1012.81 1530.47 963.766 1554.91C900.528 1586.43 835.13 1619.02 768.046 1621.72C705.087 1624.2 647.793 1578.99 592.374 1535.22C548.243 1500.38 502.607 1464.34 454.379 1452.61C391.873 1437.44 326.614 1464.66 263.509 1490.99C256.965 1493.72 250.485 1496.43 244.067 1499.06C232.214 1503.91 220.131 1509.01 208.452 1513.94C140.977 1542.38 71.2097 1571.79 0.641088 1574.77L0.5714 1570.01C70.8404 1567.05 140.454 1537.7 207.783 1509.32C219.469 1504.4 231.552 1499.31 243.412 1494.44C249.823 1491.81 256.303 1489.11 262.84 1486.38C323.248 1461.16 391.727 1432.6 454.762 1447.9C503.395 1459.71 549.219 1495.9 593.537 1530.91C648.664 1574.44 705.658 1619.43 767.969 1616.96C834.691 1614.27 899.901 1581.78 962.972 1550.34C1012.13 1525.85 1062.95 1500.52 1114.28 1489.36C1197.6 1471.25 1276.58 1517.9 1352.95 1563C1390.46 1585.15 1429.25 1608.06 1468 1622.93C1507.42 1638.06 1541.07 1642.14 1573.87 1635.74C1614.22 1627.88 1653.5 1609 1683.22 1593.44C1697.92 1585.75 1712.8 1577.53 1727.2 1569.59C1788.71 1535.63 1852.31 1500.52 1918.94 1496.27L1919.05 1501.03C1852.8 1505.24 1789.39 1540.26 1728.06 1574.11C1713.65 1582.06 1698.75 1590.28 1684.04 1597.99C1654.21 1613.62 1614.76 1632.56 1574.19 1640.46C1564.15 1642.43 1554.03 1643.42 1543.69 1643.42Z" fill="#FAC515"/>
<path d="M1550.02 1597.13C1526.84 1597.13 1502.04 1592.29 1472.97 1582.3C1434.72 1569.16 1395.78 1548.91 1358.11 1529.34C1278.61 1488.01 1196.4 1445.27 1113.2 1464.45C1061.18 1476.43 1009.36 1501.29 959.244 1525.33C893.999 1556.62 826.538 1588.97 757.684 1593.46C705.756 1596.82 653.368 1556.91 607.14 1521.68C600.701 1516.77 594.151 1511.7 587.816 1506.81C544.257 1473.12 499.214 1438.27 451.118 1425.02C391.545 1408.61 325.339 1434.97 266.923 1458.25C258.505 1461.6 250.554 1464.77 242.548 1467.86C231.085 1472.27 219.413 1476.89 208.124 1481.35C140.705 1507.99 70.9867 1535.53 0.648053 1539.11L0.564436 1534.36C70.6244 1530.8 140.21 1503.3 207.497 1476.71C218.786 1472.25 230.465 1467.63 241.935 1463.21C249.927 1460.13 257.878 1456.97 266.289 1453.61C324.956 1430.24 391.448 1403.77 451.564 1420.32C500.029 1433.68 545.24 1468.66 588.966 1502.48C595.293 1507.38 601.837 1512.44 608.275 1517.35C654.225 1552.36 706.299 1592.05 757.573 1588.71C826.092 1584.25 893.4 1551.97 958.484 1520.76C1008.69 1496.69 1060.61 1471.78 1112.82 1459.75C1196.63 1440.43 1279.13 1483.32 1358.91 1524.79C1396.51 1544.34 1435.39 1564.55 1473.51 1577.65C1515.15 1591.96 1547.92 1595.64 1579.78 1589.59C1611.2 1583.63 1644.4 1571.9 1687.42 1551.6C1701.24 1545.07 1715.23 1538.17 1728.76 1531.5C1789.97 1501.32 1853.26 1470.1 1918.93 1464.8L1919.06 1469.56C1853.72 1474.83 1790.59 1505.97 1729.53 1536.08C1715.99 1542.75 1701.99 1549.66 1688.16 1556.19C1645 1576.58 1611.66 1588.34 1580.08 1594.34C1570.23 1596.18 1560.28 1597.13 1550.02 1597.13Z" fill="#FAC515"/>
<path d="M745.308 1559.83C698.049 1559.83 649.368 1525.15 606.185 1494.38L602.248 1491.58C595.844 1487.02 589.335 1482.32 583.036 1477.78C539.505 1446.36 494.489 1413.86 446.972 1400.76C388.674 1384.66 323.653 1408.5 266.282 1429.53C257.286 1432.82 248.791 1435.94 240.241 1438.95C229.224 1442.82 218.019 1446.86 207.176 1450.76C139.98 1474.96 70.4989 1499.97 0.641088 1503.41L0.557461 1498.65C70.1644 1495.24 139.521 1470.26 206.598 1446.11C217.441 1442.21 228.653 1438.16 239.677 1434.28C248.213 1431.29 256.708 1428.17 265.697 1424.88C323.304 1403.77 388.598 1379.84 447.418 1396.07C495.262 1409.27 540.438 1441.88 584.123 1473.41C590.415 1477.96 596.924 1482.66 603.321 1487.21L607.258 1490.02C652.141 1521.99 703.01 1558.2 751.663 1554.89C821.117 1550.09 889.755 1519.44 956.143 1489.8C1006.82 1467.18 1059.23 1443.78 1111.7 1432C1173.37 1418.16 1233.79 1437.14 1290.38 1457.77C1312.42 1465.81 1334.74 1474.69 1356.32 1483.27C1397.23 1499.54 1439.52 1516.36 1481.66 1528.16C1512.53 1536.8 1549.38 1544.75 1588.75 1538.27C1619.43 1533.22 1652.79 1523.27 1693.72 1506.97C1706.41 1501.91 1719.26 1496.61 1731.68 1491.48C1792.22 1466.49 1854.82 1440.65 1918.93 1435.7L1919.05 1440.46C1855.22 1445.39 1792.74 1471.18 1732.34 1496.11C1719.9 1501.25 1707.05 1506.55 1694.34 1511.6C1653.29 1527.96 1619.82 1537.94 1589 1543C1549.09 1549.57 1510.42 1541.03 1481.2 1532.85C1438.97 1521.04 1396.63 1504.19 1355.67 1487.9C1334.1 1479.33 1311.79 1470.45 1289.78 1462.42C1233.42 1441.87 1173.28 1422.96 1112.05 1436.71C1059.75 1448.45 1007.43 1471.81 956.833 1494.39C890.306 1524.09 821.521 1554.81 751.761 1559.62C749.629 1559.76 747.468 1559.83 745.308 1559.83Z" fill="#FAC515"/>
<path d="M742.862 1521.51C696.453 1521.51 648.12 1491.12 605.251 1464.16L599.042 1460.26C592.617 1456.23 586.193 1452.15 579.761 1448.06C535.512 1419.94 489.757 1390.86 442.191 1378.94C383.999 1364.37 322.419 1384.32 262.868 1403.6C254.457 1406.32 245.76 1409.14 237.363 1411.76C226.848 1415.03 216.152 1418.43 205.804 1421.72C138.963 1442.99 69.8509 1464.97 0.641088 1467.72L0.578375 1462.96C69.5652 1460.22 138.566 1438.27 205.295 1417.04C215.643 1413.74 226.339 1410.34 236.862 1407.07C245.252 1404.46 253.948 1401.65 262.352 1398.92C322.126 1379.56 383.943 1359.55 442.603 1374.23C490.461 1386.21 536.355 1415.39 580.736 1443.6C587.161 1447.68 593.579 1451.76 600.004 1455.79L606.22 1459.69C650.915 1487.79 701.589 1519.66 749.461 1516.53C818.978 1512 888.09 1484.37 954.931 1457.66C1005.8 1437.32 1058.4 1416.3 1110.86 1405.56C1174.57 1392.53 1240.26 1409.63 1293.04 1423.38C1315.92 1429.34 1339.13 1435.9 1361.58 1442.26C1404.15 1454.31 1448.17 1466.78 1491.73 1475.57C1523.51 1481.99 1561.23 1487.9 1599.96 1483.12C1630.1 1479.41 1662.39 1472.14 1701.56 1460.28C1712.94 1456.83 1724.47 1453.24 1735.63 1449.76C1795.2 1431.18 1856.8 1411.97 1918.95 1408.33L1919.05 1413.09C1857.1 1416.72 1795.6 1435.9 1736.13 1454.44C1724.97 1457.93 1713.43 1461.52 1702.04 1464.97C1662.77 1476.86 1630.39 1484.14 1600.15 1487.86C1561.19 1492.67 1523.31 1486.74 1491.4 1480.29C1447.77 1471.48 1403.71 1459.01 1361.12 1446.95C1338.68 1440.6 1315.47 1434.03 1292.62 1428.08C1225.7 1410.65 1169.85 1398.27 1111.19 1410.28C1058.88 1420.99 1006.36 1441.98 955.565 1462.28C888.599 1489.05 819.354 1516.73 749.566 1521.27C747.336 1521.44 745.099 1521.51 742.862 1521.51Z" fill="#FAC515"/>
<path d="M744.465 1479.98C696.125 1479.98 647.633 1454.42 600.722 1429.69C598.011 1428.27 595.307 1426.84 592.624 1425.44C587.544 1422.77 582.465 1420.08 577.385 1417.4C531.275 1392.99 483.597 1367.76 434.826 1358.21C375.797 1346.65 314.21 1363.64 254.652 1380.07C246.603 1382.3 238.283 1384.59 230.193 1386.75C221.503 1389.06 212.807 1391.42 204.117 1393.77C137.73 1411.76 69.0843 1430.35 0.634113 1432.07L0.592304 1427.31C68.8474 1425.59 137.395 1407.02 203.678 1389.08C212.375 1386.72 221.071 1384.37 229.761 1382.05C237.844 1379.89 246.157 1377.6 254.199 1375.38C313.946 1358.89 375.72 1341.85 435.132 1353.49C484.169 1363.09 531.972 1388.4 578.2 1412.86C583.28 1415.55 588.36 1418.24 593.433 1420.9C596.123 1422.32 598.819 1423.73 601.537 1425.17C648.546 1449.95 697.171 1475.55 745.371 1475.25C799.32 1474.88 854.286 1456.57 907.441 1438.86C913.768 1436.76 920.068 1434.65 926.339 1432.6C934.43 1429.94 942.52 1427.26 950.61 1424.57C1001.63 1407.62 1054.38 1390.1 1106.98 1380.58C1168.34 1369.49 1230.58 1378.99 1290.76 1388.18L1293.37 1388.58C1318.09 1392.35 1343.2 1396.56 1367.49 1400.61C1411.24 1407.94 1456.49 1415.5 1501.08 1420.84C1568.18 1428.88 1636.39 1426.16 1709.58 1412.52C1720.04 1410.57 1730.48 1408.57 1740.92 1406.57C1799.06 1395.45 1859.17 1383.94 1918.97 1382.15L1919.02 1386.91C1859.35 1388.7 1799.3 1400.19 1741.23 1411.29C1730.79 1413.29 1720.34 1415.29 1709.88 1417.24C1636.52 1430.91 1568.15 1433.64 1500.88 1425.58C1456.26 1420.24 1410.99 1412.66 1367.22 1405.34C1342.94 1401.27 1317.84 1397.07 1293.13 1393.3L1290.52 1392.91C1230.46 1383.74 1168.36 1374.25 1107.27 1385.29C1054.8 1394.79 1002.11 1412.29 951.147 1429.22C943.056 1431.91 934.959 1434.59 926.869 1437.26C920.597 1439.32 914.298 1441.42 907.978 1443.53C854.698 1461.27 799.599 1479.63 745.385 1480C745.085 1479.98 744.772 1479.98 744.465 1479.98Z" fill="#FAC515"/>
<path d="M746.813 1435.82C687.088 1435.82 628.128 1410.45 571.085 1385.91C524.969 1366.07 477.277 1345.56 429.544 1338.62C368.327 1329.74 305.388 1343.62 244.527 1357.04C238.611 1358.34 232.715 1359.64 226.834 1360.91C218.709 1362.67 210.591 1364.47 202.466 1366.25C136.524 1380.77 68.3387 1395.78 0.613209 1396.37L0.59928 1391.61C68.1506 1391.03 136.245 1376.03 202.11 1361.53C210.235 1359.75 218.361 1357.95 226.486 1356.19C232.367 1354.92 238.262 1353.61 244.171 1352.31C305.179 1338.86 368.271 1324.95 429.788 1333.88C477.751 1340.85 525.547 1361.41 571.775 1381.3C629.118 1405.98 688.419 1431.43 748.298 1431.06C818.399 1430.56 889.066 1410.29 957.404 1390.71C1006.25 1376.7 1056.75 1362.22 1106.64 1355.07C1162.17 1347.12 1218.88 1350.2 1273.72 1353.18C1281.35 1353.6 1288.98 1354.01 1296.6 1354.39C1322.32 1355.7 1348.48 1357.19 1373.77 1358.63C1419.36 1361.23 1466.49 1363.92 1512.87 1365.6C1589.01 1368.35 1666.34 1364.87 1741.12 1361.51C1799.4 1358.88 1859.66 1356.19 1919 1356.43L1919 1361.19C1859.67 1360.95 1799.45 1363.65 1741.18 1366.26C1666.37 1369.63 1589.02 1373.12 1512.8 1370.36C1466.42 1368.68 1419.27 1365.99 1373.67 1363.39C1348.39 1361.95 1322.23 1360.45 1296.51 1359.15C1288.88 1358.77 1281.25 1358.36 1273.62 1357.94C1218.86 1354.97 1162.23 1351.89 1106.86 1359.82C1057.09 1366.95 1006.64 1381.42 957.857 1395.4C889.414 1415.03 818.636 1435.33 748.305 1435.83C747.81 1435.82 747.308 1435.82 746.813 1435.82Z" fill="#FAC515"/>
<path d="M752.925 1390.4C752.827 1390.4 752.723 1390.4 752.625 1390.4C692.105 1390.36 631.731 1371.78 573.343 1353.81C524.746 1338.86 474.497 1323.39 424.457 1318.73C346.983 1311.49 268.435 1325.32 192.48 1338.7C129.667 1349.76 64.7082 1361.21 0.606244 1360.7L0.620184 1355.94C64.5898 1356.45 129.458 1345.01 192.194 1333.96C268.261 1320.57 346.92 1306.73 424.61 1313.98C474.824 1318.67 525.164 1334.16 573.845 1349.14C632.114 1367.07 692.363 1385.62 752.632 1385.65C752.729 1385.65 752.834 1385.65 752.932 1385.65C821.431 1385.65 890.654 1370.57 957.62 1355.98C1006.35 1345.36 1056.74 1334.38 1106.46 1329.29C1151.08 1324.72 1196.57 1323.44 1240.58 1322.2C1259.98 1321.65 1280.05 1321.08 1299.76 1320.25C1326.48 1319.11 1353.2 1317.95 1379.92 1316.79C1427.31 1314.73 1476.3 1312.61 1524.5 1310.63C1607.18 1307.22 1690.78 1314.06 1771.62 1320.66C1819.89 1324.61 1869.79 1328.68 1919.03 1330.55L1918.97 1335.31C1869.7 1333.44 1819.77 1329.36 1771.48 1325.41C1690.69 1318.81 1607.13 1311.98 1524.56 1315.37C1476.37 1317.36 1427.37 1319.48 1379.99 1321.53C1353.27 1322.69 1326.55 1323.85 1299.83 1324.99C1280.11 1325.84 1260.04 1326.4 1240.63 1326.94C1196.66 1328.18 1151.19 1329.47 1106.64 1334.02C1057 1339.1 1006.66 1350.07 957.976 1360.67C890.919 1375.29 821.598 1390.4 752.925 1390.4Z" fill="#FAC515"/>
<path d="M757.21 1344.83C696.606 1344.83 635.682 1332.68 576.716 1320.91C526.188 1310.84 473.939 1300.41 422.22 1297.71C348.16 1293.83 273.09 1302.54 200.487 1310.95C135.047 1318.54 67.3771 1326.37 0.59928 1325.01L0.634113 1320.25C67.3004 1321.63 134.914 1313.78 200.299 1306.2C272.965 1297.78 348.105 1289.06 422.304 1292.95C474.141 1295.66 526.453 1306.09 577.043 1316.19C637.563 1328.26 700.153 1340.72 762.241 1340.05C826.629 1339.33 891.832 1329.8 954.889 1320.59C1005.53 1313.2 1057.9 1305.55 1109.59 1302.49C1205.12 1296.84 1301.94 1284.95 1395.57 1273.46C1442.05 1267.75 1490.09 1261.85 1537.42 1256.78L1545.8 1255.88C1580.26 1252.15 1615.91 1248.28 1651.08 1252.1C1678.29 1255.06 1706.5 1260.28 1737.32 1268.08C1743.2 1269.57 1749.07 1271.07 1754.94 1272.57C1808.39 1286.21 1863.67 1300.31 1919.05 1303.91L1918.95 1308.66C1863.4 1305.05 1808.05 1290.93 1754.53 1277.27C1748.66 1275.77 1742.79 1274.27 1736.91 1272.78C1706.16 1265 1678.03 1259.79 1650.9 1256.83C1615.91 1253.03 1580.36 1256.88 1545.97 1260.61L1537.59 1261.52C1490.28 1266.58 1442.23 1272.48 1395.76 1278.19C1302.1 1289.69 1205.25 1301.59 1109.67 1307.24C1058.06 1310.29 1005.73 1317.93 955.119 1325.33C892.006 1334.54 826.747 1344.07 762.248 1344.81C760.569 1344.82 758.89 1344.83 757.21 1344.83Z" fill="#FAC515"/>
<path d="M765.356 1300.29C705.122 1300.29 644.155 1293.65 585.175 1287.23C530.55 1281.29 474.058 1275.14 418.367 1274.28C351.122 1273.26 282.811 1277.68 216.751 1281.95C145.924 1286.54 72.694 1291.28 0.58534 1289.33L0.627148 1284.57C72.6591 1286.53 145.855 1281.78 216.639 1277.21C282.734 1272.92 351.08 1268.5 418.388 1269.52C474.162 1270.37 530.69 1276.53 585.349 1282.47C644.81 1288.94 706.306 1295.65 766.959 1295.52C828.977 1295.4 891.93 1290.05 952.812 1284.88C1004.16 1280.51 1057.25 1275.99 1109.57 1274.64C1207.81 1272.08 1306.85 1252.02 1402.63 1232.6C1449.81 1223.04 1498.59 1213.16 1546.7 1205.49L1552.11 1204.62C1587.88 1198.89 1624.86 1192.95 1661.36 1198.53C1688.16 1202.62 1715.38 1210.4 1744.56 1222.3C1749.85 1224.46 1755.12 1226.63 1760.38 1228.79C1813.8 1250.77 1864.25 1271.52 1919.05 1275.84L1918.92 1280.6C1863.85 1276.25 1813.27 1255.44 1759.72 1233.41C1754.47 1231.25 1749.2 1229.08 1743.92 1226.93C1714.87 1215.09 1687.78 1207.34 1661.12 1203.26C1624.87 1197.72 1588.01 1203.63 1552.38 1209.35L1546.96 1210.22C1498.88 1217.89 1450.12 1227.78 1402.95 1237.33C1307.1 1256.75 1207.99 1276.84 1109.6 1279.39C1057.34 1280.75 1004.27 1285.26 952.945 1289.62C892.027 1294.8 829.04 1300.16 766.959 1300.28C766.429 1300.28 765.893 1300.29 765.356 1300.29Z" fill="#FAC515"/>
<path d="M760.653 1257.7C704.878 1257.7 648.323 1255.17 593.565 1252.72C534.404 1250.06 473.222 1247.33 413.043 1247.78C360.536 1248.17 307.11 1249.65 255.446 1251.06C171.896 1253.36 85.5018 1255.73 0.58534 1253.66L0.627148 1248.9C85.4948 1250.97 171.875 1248.6 255.404 1246.31C307.075 1244.89 360.508 1243.43 413.036 1243.02C473.263 1242.57 534.459 1245.31 593.642 1247.96C650.197 1250.49 708.682 1253.12 766.22 1252.94C823.842 1252.76 882.411 1250.8 939.05 1248.91C993.932 1247.08 1050.69 1245.18 1106.53 1244.9C1207.22 1244.4 1308.11 1218.27 1405.69 1193.01C1453.41 1180.65 1502.76 1167.88 1551.53 1158.23L1554 1157.75C1591.3 1150.36 1629.87 1142.74 1667.85 1149.19C1694.29 1153.69 1721.73 1163.59 1749.43 1178.61C1755.16 1181.71 1760.85 1184.84 1766.51 1187.93C1817 1215.63 1864.69 1241.79 1919.06 1245.76L1918.94 1250.52C1864.2 1246.51 1816.33 1220.26 1765.66 1192.46C1760.01 1189.36 1754.32 1186.24 1748.59 1183.14C1721.08 1168.22 1693.83 1158.4 1667.59 1153.93C1629.91 1147.52 1591.48 1155.12 1554.33 1162.47L1551.86 1162.96C1503.14 1172.59 1453.82 1185.36 1406.12 1197.72C1308.44 1223.02 1207.44 1249.17 1106.55 1249.67C1050.73 1249.95 993.988 1251.85 939.112 1253.68C882.46 1255.57 823.876 1257.53 766.234 1257.71C764.367 1257.7 762.506 1257.7 760.653 1257.7Z" fill="#FAC515"/>
<path d="M301.075 1219.21C200.954 1219.21 100.344 1218.92 0.59928 1217.96L0.613209 1213.21C188.466 1214.99 379.504 1214.48 564.249 1213.99C631.152 1213.81 700.327 1213.62 768.36 1213.55C814.818 1213.5 862.049 1213.29 907.734 1213.08C972.909 1212.78 1040.3 1212.47 1106.58 1212.64C1107.02 1212.64 1107.46 1212.64 1107.9 1212.64C1208.34 1212.64 1308.25 1183.51 1404.88 1155.32C1454.14 1140.95 1505.08 1126.1 1555.62 1115.23C1618.26 1101.74 1685.49 1095.19 1752.56 1138.22C1762.47 1144.58 1772.39 1151.69 1781.98 1158.57C1795.15 1168.01 1808.76 1177.76 1822.51 1185.68C1851.77 1202.54 1883.35 1211.45 1919.04 1212.94L1918.97 1217.7C1882.99 1216.19 1851.15 1207.2 1821.62 1190.19C1807.77 1182.22 1794.12 1172.42 1780.9 1162.96C1771.33 1156.09 1761.44 1149 1751.57 1142.68C1685.08 1100.02 1618.26 1106.53 1555.97 1119.95C1505.49 1130.81 1454.58 1145.66 1405.35 1160.02C1308.61 1188.23 1208.58 1217.39 1107.9 1217.39C1107.45 1217.39 1107.02 1217.39 1106.58 1217.39C1040.3 1217.21 972.909 1217.54 907.741 1217.83C862.056 1218.05 814.825 1218.26 768.367 1218.31C700.334 1218.38 631.159 1218.57 564.256 1218.75C477.591 1218.97 389.525 1219.21 301.075 1219.21Z" fill="#FAC515"/>
<path d="M524.55 1187.96C486.538 1187.96 448.428 1186.95 410.611 1184.06C320.224 1177.16 228.409 1178.96 139.618 1180.71C94.0729 1181.6 46.9737 1182.54 0.59928 1182.28L0.606244 1177.53C46.9598 1177.78 94.045 1176.86 139.583 1175.96C228.416 1174.21 320.266 1172.4 410.736 1179.31C493.569 1185.64 577.865 1182.95 659.388 1180.36C695.854 1179.19 733.56 1177.99 770.638 1177.62C834.482 1176.97 899.386 1177.48 962.157 1177.97C1009.74 1178.33 1058.95 1178.73 1107.34 1178.6C1175.38 1178.42 1241.02 1169.06 1307.98 1149.96C1337.28 1141.61 1366.99 1132.23 1395.73 1123.17C1447.73 1106.78 1501.49 1089.82 1554.85 1078.23C1594.38 1069.63 1626.16 1066.7 1654.85 1069.03C1690.73 1071.93 1722.7 1083.11 1752.59 1103.19C1762.15 1109.61 1771.7 1116.75 1780.93 1123.66C1794.54 1133.83 1808.61 1144.35 1822.9 1152.72C1851.45 1169.43 1882.16 1177.56 1916.7 1177.56C1917.46 1177.56 1918.22 1177.56 1918.99 1177.55L1919 1182.31C1918.24 1182.32 1917.47 1182.32 1916.7 1182.32C1881.85 1182.32 1850.85 1174.1 1821.99 1157.21C1807.6 1148.79 1793.48 1138.23 1779.81 1128.01C1770.6 1121.13 1761.07 1114 1751.57 1107.61C1684.81 1062.76 1614.84 1069.97 1555.21 1082.95C1501.93 1094.53 1448.19 1111.48 1396.24 1127.86C1367.49 1136.92 1337.76 1146.29 1308.45 1154.65C1241.32 1173.79 1175.55 1183.19 1107.35 1183.35C1058.95 1183.48 1009.74 1183.09 962.15 1182.72C899.386 1182.24 834.489 1181.72 770.659 1182.38C733.601 1182.76 695.903 1183.96 659.444 1185.11C615.076 1186.52 569.88 1187.96 524.55 1187.96Z" fill="#FAC515"/>
<path d="M533.951 1160.64C493.374 1160.64 452.728 1157.85 412.499 1149.72C345.22 1136.12 282.546 1131.07 220.897 1134.28C195.065 1135.62 168.823 1137.66 143.437 1139.63C96.6512 1143.26 48.2629 1147.01 0.592304 1146.6L0.606244 1141.84C48.2211 1142.27 96.5606 1138.51 143.311 1134.89C168.704 1132.91 194.968 1130.88 220.813 1129.53C282.602 1126.31 345.408 1131.38 412.827 1145C497.499 1162.11 584.186 1155.49 668.022 1149.08C706.933 1146.1 747.169 1143.02 786.652 1142.37C847.673 1141.36 909.699 1143.07 969.683 1144.72C1017.77 1146.05 1067.5 1147.42 1116.41 1147.38C1183.93 1147.32 1249.03 1137.4 1315.44 1117.06C1342.79 1108.69 1370.52 1099.3 1397.35 1090.23C1448.35 1072.97 1501.08 1055.14 1553.53 1043.4C1592.04 1034.78 1623.79 1032.17 1653.43 1035.17C1688.73 1038.75 1720.61 1050.42 1750.89 1070.86C1759.79 1076.87 1768.72 1083.44 1777.36 1089.79C1792.24 1100.72 1807.63 1112.03 1823.27 1120.79C1852.77 1137.33 1884.06 1144.21 1918.95 1141.87L1919.06 1146.63C1883.83 1149 1852.22 1142.03 1822.41 1125.32C1806.65 1116.49 1791.2 1105.14 1776.27 1094.16C1767.65 1087.82 1758.74 1081.28 1749.87 1075.3C1679.84 1028.02 1608.35 1035.94 1553.9 1048.14C1501.54 1059.85 1448.85 1077.68 1397.9 1094.91C1371.07 1103.99 1343.32 1113.38 1315.94 1121.77C1249.37 1142.17 1184.11 1152.1 1116.42 1152.16C1115.71 1152.16 1115 1152.16 1114.28 1152.16C1066.04 1152.16 1017.05 1150.8 969.648 1149.49C909.685 1147.84 847.68 1146.13 786.686 1147.14C747.259 1147.79 707.045 1150.87 668.154 1153.85C623.982 1157.2 579.015 1160.64 533.951 1160.64Z" fill="#FAC515"/>
<path d="M545.219 1132.4C500.705 1132.4 456.219 1127.57 412.492 1113.12C407.454 1111.46 402.444 1109.76 397.461 1108.07C371.672 1099.3 347.317 1091.04 321.207 1088.3C292.497 1085.29 262.045 1085.56 222.465 1089.22C196.501 1091.61 170.14 1095.1 144.642 1098.49C97.5083 1104.76 48.7785 1111.25 0.592304 1110.93L0.59928 1106.18C48.6531 1106.5 97.348 1100 144.426 1093.75C169.937 1090.36 196.313 1086.85 222.312 1084.46C262.003 1080.81 292.553 1080.52 321.374 1083.55C347.666 1086.31 372.118 1094.62 397.998 1103.4C402.98 1105.09 407.984 1106.79 413.015 1108.46C501.304 1137.63 592.896 1127.42 681.464 1117.55C722.452 1112.98 764.841 1108.26 806.191 1107.54C865.526 1106.52 925.796 1109.91 984.072 1113.19C1030.99 1115.83 1079.5 1118.56 1127.23 1118.96C1193.25 1119.54 1256.84 1109.23 1321.61 1087.47C1347.7 1078.7 1374.13 1068.85 1399.7 1059.33C1448.29 1041.22 1498.53 1022.52 1548.64 1010.38C1585.78 1001.41 1618.61 998.717 1649.02 1002.19C1683.85 1006.16 1715.87 1018.1 1746.91 1038.68C1755.47 1044.36 1764.09 1050.5 1772.42 1056.45C1788.63 1068 1805.38 1079.95 1822.44 1088.95C1852.76 1104.97 1884.3 1110.61 1918.86 1106.16L1919.07 1110.91C1884.15 1115.39 1852.27 1109.71 1821.61 1093.51C1804.43 1084.43 1787.61 1072.45 1771.34 1060.85C1763.02 1054.91 1754.42 1048.79 1745.89 1043.13C1688.07 1004.79 1627.36 996.148 1549.02 1015.11C1499.01 1027.2 1448.82 1045.9 1400.28 1063.99C1374.7 1073.52 1348.25 1083.38 1322.13 1092.14C1257.18 1113.95 1193.4 1124.3 1127.2 1123.72C1079.43 1123.3 1030.89 1120.58 983.961 1117.94C925.712 1114.67 865.478 1111.28 806.198 1112.3C764.924 1113.01 722.577 1117.72 681.624 1122.29C636.685 1127.3 590.945 1132.4 545.219 1132.4Z" fill="#FAC515"/>
<path d="M558.138 1103.42C509.143 1103.42 460.386 1096.4 412.924 1074.97C407.001 1072.29 401.099 1069.51 395.385 1066.82C371.01 1055.33 347.979 1044.47 322.377 1040.95C294.079 1037.07 263.746 1037.75 224.019 1043.15C197.936 1046.7 171.491 1051.77 145.918 1056.67C98.4421 1065.79 49.3569 1075.19 0.606244 1075.24V1070.48C49.2036 1070.44 98.2051 1061.04 145.597 1051.95C171.192 1047.04 197.665 1041.96 223.789 1038.42C263.669 1032.99 294.142 1032.32 322.593 1036.22C348.467 1039.76 371.616 1050.68 396.124 1062.24C401.824 1064.93 407.726 1067.71 413.628 1070.38C506.314 1112.23 604.283 1098.79 699.024 1085.78C742.786 1079.77 788.045 1073.56 831.841 1073.02C889.045 1072.31 947.056 1077.71 1003.15 1082.94C1048.54 1087.17 1095.48 1091.53 1141.71 1092.64C1204.97 1094.16 1266.33 1083.36 1329.32 1059.65C1353.86 1050.41 1378.7 1040.01 1402.72 1029.95C1448.37 1010.84 1495.57 991.082 1542.82 978.391C1617.29 958.398 1680.49 967.473 1741.71 1006.94C1745.32 1009.26 1748.9 1011.59 1752.46 1013.89C1806.63 1049.02 1857.81 1082.2 1918.83 1070.47L1919.14 1075.19C1910.48 1076.86 1902.01 1077.63 1893.71 1077.63C1842.92 1077.63 1798.31 1048.71 1751.47 1018.33C1747.91 1016.02 1744.33 1013.7 1740.72 1011.38C1679.97 972.218 1617.22 963.227 1543.25 983.089C1496.11 995.744 1448.97 1015.48 1403.38 1034.56C1379.34 1044.63 1354.48 1055.03 1329.91 1064.29C1266.71 1088.07 1205.13 1098.9 1141.66 1097.39C1095.38 1096.28 1048.41 1091.9 1002.99 1087.67C946.938 1082.45 888.968 1077.05 831.855 1077.75C788.157 1078.29 742.953 1084.49 699.24 1090.49C652.664 1096.92 605.293 1103.42 558.138 1103.42Z" fill="#FAC515"/>
<path d="M1175.54 1072.9C1169.88 1072.9 1164.2 1072.78 1158.52 1072.52C1113.96 1070.55 1068.83 1064.32 1025.19 1058.3C971.634 1050.91 916.242 1043.31 861.541 1043.47C817.034 1043.64 771.851 1050.09 728.159 1056.33C703.421 1059.86 677.841 1063.51 652.664 1065.99C572.813 1073.83 488.587 1077.94 413.628 1035.8C406.618 1031.86 399.74 1027.71 393.085 1023.71C370.201 1009.92 348.585 996.897 323.499 992.699C287.759 986.717 252.366 991.581 225.524 996.469C199.33 1001.25 172.808 1007.96 147.165 1014.44C99.3967 1026.52 49.9841 1039.02 0.613209 1039.56L0.592304 1034.8C49.768 1034.27 99.0762 1021.8 146.761 1009.73C172.432 1003.24 198.975 996.529 225.231 991.736C252.206 986.812 287.786 981.935 323.778 987.953C349.199 992.2 370.968 1005.32 394.019 1019.21C400.66 1023.21 407.524 1027.35 414.506 1031.27C489.005 1073.16 572.932 1069.03 652.511 1061.22C677.645 1058.76 703.205 1055.1 727.929 1051.57C771.677 1045.33 816.915 1038.87 861.534 1038.7C916.347 1038.55 971.801 1046.15 1025.42 1053.56C1069.02 1059.58 1114.11 1065.8 1158.59 1067.76C1218.67 1070.4 1277.36 1059.05 1338.02 1033.05C1360.82 1023.29 1383.87 1012.26 1406.16 1001.62C1448.49 981.376 1492.27 960.456 1536.35 947.111C1571.43 936.49 1604.42 933.552 1637.22 938.12C1670.51 942.746 1702.72 954.984 1735.69 975.525C1739.18 977.701 1742.65 979.878 1746.1 982.042C1802.65 1017.49 1856.07 1050.94 1918.79 1034.84L1919.21 1039.54C1855.79 1055.84 1802.04 1022.16 1745.14 986.503C1741.69 984.338 1738.22 982.161 1734.73 979.997C1670.7 940.094 1605.97 930.876 1536.84 951.797C1492.9 965.094 1449.19 985.991 1406.91 1006.2C1384.61 1016.87 1361.54 1027.89 1338.71 1037.67C1283.54 1061.31 1229.99 1072.9 1175.54 1072.9Z" fill="#FAC515"/>
<path d="M1197.42 1049.03C1190.48 1049.03 1183.54 1048.79 1176.57 1048.33C1133.85 1045.46 1090.72 1037.25 1049.02 1029.32C998.113 1019.64 945.474 1009.62 893.247 1009.26C846.022 1008.95 798.059 1016.41 751.67 1023.66C725.274 1027.79 697.979 1032.04 671.137 1034.81C631.78 1038.88 586.053 1042.85 541.407 1038.64C492.245 1034.01 450.735 1020.09 414.506 996.101C406.472 990.784 398.716 985.087 391.218 979.592C369.658 963.762 349.296 948.824 324.628 943.971C289.417 937.049 253.983 943.269 227.043 949.466C200.738 955.508 174.167 963.881 148.468 971.969C100.386 987.109 50.667 1002.76 0.627148 1003.88L0.592304 999.122C50.3952 998.016 99.996 982.399 147.966 967.294C173.7 959.195 200.306 950.81 226.681 944.756C253.781 938.524 289.438 932.268 324.956 939.249C350.028 944.173 370.571 959.254 392.326 975.227C399.796 980.71 407.524 986.384 415.517 991.676C493.618 1043.38 584.541 1039 670.977 1030.08C697.777 1027.31 725.051 1023.05 751.426 1018.94C797.878 1011.68 845.91 1004.2 893.267 1004.51C945.642 1004.87 998.357 1014.9 1049.34 1024.6C1090.99 1032.52 1134.07 1040.71 1176.7 1043.58C1234.59 1047.47 1288.78 1035.87 1347.24 1007.07C1368.2 996.743 1389.35 985.063 1409.8 973.788C1448.64 952.356 1488.8 930.198 1529.56 916.176C1563.6 904.461 1596.64 901.273 1630.56 906.435C1662.82 911.347 1695.1 923.716 1729.25 944.268C1732.7 946.338 1736.13 948.419 1739.55 950.489C1798.6 986.217 1854.38 1019.95 1918.75 999.193L1919.27 1003.87C1905.41 1008.34 1891.95 1010.31 1878.79 1010.31C1830.11 1010.31 1785.39 983.256 1738.62 954.961C1735.21 952.891 1731.77 950.822 1728.33 948.74C1659.93 907.589 1595.09 898.466 1530.11 920.838C1489.51 934.813 1449.43 956.935 1410.67 978.32C1390.2 989.619 1369.03 1001.3 1348.02 1011.65C1297.08 1036.71 1247.62 1049.03 1197.42 1049.03Z" fill="#FAC515"/>
<path d="M1218.32 1025.17C1209.26 1025.17 1200.11 1024.69 1190.82 1023.77C1151.16 1019.77 1111.31 1009.86 1072.77 1000.28C1023.67 988.073 972.881 975.442 922.137 974.99C872.864 974.55 822.817 982.946 774.422 991.07C745.455 995.934 715.505 1000.95 686.049 1004.02C595.265 1013.49 499.82 1017.79 418.339 958.683C409.384 952.19 400.855 943.947 392.605 935.991C382.654 926.392 372.368 916.461 361.4 909.694C350.237 902.807 337.861 897.86 324.621 894.981C291.166 887.714 257.655 894.613 232.193 901.428C204.549 908.826 176.711 919.316 149.778 929.449C101.404 947.658 51.3847 966.486 0.634113 968.186L0.578375 963.429C51.0502 961.74 100.93 942.96 149.172 924.799C176.139 914.642 204.027 904.151 231.754 896.718C257.397 889.855 291.166 882.909 324.963 890.248C338.405 893.174 350.982 898.205 362.341 905.198C373.525 912.096 383.922 922.134 393.97 931.828C402.151 939.725 410.611 947.896 419.419 954.283C500.342 1012.99 595.426 1008.68 685.868 999.253C715.275 996.184 745.204 991.165 774.143 986.312C822.608 978.177 872.725 969.792 922.151 970.208C973.09 970.66 1023.97 983.315 1073.18 995.542C1111.66 1005.1 1151.45 1015 1190.99 1018.98C1247.92 1024.73 1300.08 1012.89 1355.15 981.733C1374.73 970.66 1394.41 958.029 1413.44 945.827C1449.27 922.836 1486.32 899.073 1524.41 884.527C1586.05 860.978 1649.33 870.136 1723.57 913.381C1726.81 915.272 1730.04 917.163 1733.27 919.054C1794.76 955.044 1852.85 989.048 1918.69 963.488L1919.31 968.127C1903.06 974.431 1887.28 977.166 1871.84 977.166C1823.97 977.166 1779.16 950.941 1732.37 923.55C1729.14 921.659 1725.92 919.768 1722.67 917.888C1648.94 874.953 1586.14 865.83 1525.01 889.177C1487.13 903.652 1450.17 927.368 1414.42 950.287C1395.36 962.513 1375.65 975.156 1356.02 986.253C1309.59 1012.55 1265.2 1025.17 1218.32 1025.17Z" fill="#FAC515"/>
<path d="M1237.11 1000.67C1227.48 1000.67 1217.72 1000.04 1207.78 998.777C1169.7 993.96 1131.72 982.185 1094.99 970.791C1048.47 956.376 1000.39 941.462 951.844 940.653C900.013 939.785 847.325 949.288 796.372 958.481C765.802 964 734.194 969.697 703.129 973.099C672.196 976.476 640.769 979.247 609.571 979.247C542.78 979.247 477.012 966.545 419.182 919.863C408.562 911.288 398.73 901.428 389.218 891.889C369.198 871.801 350.279 852.831 325.757 846.682C292.95 838.463 259.335 846.575 233.719 854.567C205.971 863.226 178.09 875.369 151.13 887.12C102.463 908.35 52.1303 930.282 0.641088 932.518L0.5714 927.76C51.7471 925.536 101.919 903.664 150.44 882.517C177.449 870.742 205.379 858.575 233.217 849.893C259.049 841.841 292.957 833.658 326.161 841.984C351.219 848.263 370.362 867.472 390.626 887.798C400.082 897.289 409.865 907.089 420.366 915.569C504.607 983.565 606.15 978.926 702.948 968.353C733.957 964.963 765.537 959.266 796.073 953.76C847.102 944.554 899.873 935.039 951.864 935.907C1000.64 936.728 1048.86 951.678 1095.48 966.129C1132.14 977.487 1170.05 989.238 1207.98 994.043C1263.07 1001.02 1312.63 988.679 1363.94 955.222C1381.74 943.614 1399.57 930.329 1416.8 917.496C1449.23 893.34 1482.77 868.352 1517.79 853.235C1549.95 839.355 1582.98 835.882 1618.77 842.614C1648.67 848.24 1680.06 860.752 1717.56 881.994C1720.9 883.885 1724.22 885.776 1727.55 887.667C1791.34 923.99 1851.59 958.315 1918.63 927.855L1919.35 932.458C1851.5 963.274 1790.86 928.747 1726.66 892.186C1723.34 890.295 1720.02 888.404 1716.68 886.513C1663.4 856.339 1592.72 825.796 1518.47 857.862C1483.67 872.883 1450.23 897.788 1417.91 921.873C1400.65 934.73 1382.79 948.027 1364.93 959.683C1322.49 987.335 1281.24 1000.67 1237.11 1000.67Z" fill="#FAC515"/>
<path d="M1253.02 974.752C1243 974.752 1232.77 973.967 1222.29 972.409C1185.55 966.938 1149.24 953.474 1114.12 940.451C1069.92 924.061 1024.21 907.113 977.487 906.126C923.552 904.984 868.683 915.7 815.619 926.071C783.592 932.327 750.479 938.797 717.964 942.58C615.035 954.545 507.22 959.718 419.725 882.077C408.625 872.229 398.521 860.609 388.758 849.37C369.511 827.224 351.331 806.315 326.935 799.333C294.622 790.092 260.972 799.309 235.266 808.372C207.42 818.196 179.498 831.934 152.496 845.219C103.529 869.303 52.8899 894.22 0.641088 896.849L0.557461 892.091C52.4578 889.475 102.923 864.653 151.722 840.64C178.773 827.331 206.751 813.57 234.694 803.71C260.638 794.564 294.615 785.251 327.388 794.635C352.383 801.783 370.807 822.978 390.312 845.421C400.019 856.577 410.046 868.126 421.008 877.855C507.861 954.937 615.237 949.751 717.769 937.834C750.228 934.064 783.307 927.606 815.298 921.349C868.446 910.966 923.406 900.227 977.515 901.38C1024.52 902.379 1070.36 919.375 1114.7 935.812C1149.74 948.8 1185.96 962.24 1222.53 967.687C1276.67 975.751 1324.07 962.977 1371.7 927.487C1387.94 915.391 1404.09 901.523 1419.71 888.107C1449.08 862.881 1479.45 836.798 1511.84 821.241C1543.29 806.148 1576.44 802.438 1613.18 809.895C1642.27 815.806 1672.87 828.258 1712.38 850.273C1715.65 852.093 1718.91 853.913 1722.17 855.745C1788.2 892.734 1850.57 927.665 1918.58 892.198L1919.39 896.754C1888.47 912.881 1855.57 915.783 1818.83 905.614C1786.08 896.551 1753.15 878.104 1721.3 860.276C1718.04 858.456 1714.78 856.625 1711.52 854.805C1652.18 821.741 1582.14 792.435 1512.59 825.82C1480.46 841.246 1450.21 867.234 1420.95 892.353C1405.3 905.793 1389.12 919.696 1372.81 931.84C1333.97 960.777 1295.27 974.752 1253.02 974.752Z" fill="#FAC515"/>
<path d="M1264.49 946.623C1255.08 946.623 1245.48 945.862 1235.67 944.364C1196.2 938.298 1157.54 920.16 1123.43 904.151C1077.15 882.434 1034.88 871.67 994.211 871.266C939.475 870.683 883.777 882.576 829.883 894.054C795.564 901.368 760.074 908.921 725.267 913.179C677.548 919.006 622.087 924.573 567.824 916.759C507.422 908.064 458.316 884.182 417.712 843.744C406.702 832.778 396.96 819.992 387.532 807.623C369.17 783.527 351.826 760.774 327.067 753.032C295.284 743.089 261.669 753.412 235.928 763.51C208.319 774.345 180.669 789.366 153.924 803.9C104.63 830.685 53.6564 858.385 0.641088 861.18L0.557461 856.422C53.1825 853.639 103.968 826.046 153.081 799.369C179.874 784.811 207.588 769.754 235.301 758.871C261.3 748.667 295.284 738.248 327.569 748.345C352.996 756.29 370.598 779.388 389.232 803.853C398.59 816.127 408.262 828.829 419.119 839.641C506.753 926.904 618.31 921.48 725.065 908.445C759.802 904.199 795.251 896.647 829.535 889.356C883.512 877.855 939.342 865.949 994.218 866.532C1035.14 866.948 1077.64 877.76 1124.16 899.596C1158.16 915.545 1196.7 933.636 1235.92 939.666C1287.98 947.67 1334.11 934.314 1376.97 898.835C1392.33 886.121 1407.44 871.396 1422.06 857.148C1447.39 832.469 1473.59 806.933 1502.02 790.936C1532.66 773.679 1565.55 768.588 1602.54 775.391C1639.18 782.123 1674.64 799.738 1701.44 814.319C1707.45 817.59 1713.56 820.98 1719.48 824.262C1783.86 859.955 1850.43 896.861 1918.53 856.589L1919.44 861.085C1850.46 901.88 1783.43 864.724 1718.61 828.794C1712.71 825.523 1706.59 822.133 1700.59 818.862C1637.41 784.466 1569.72 757.837 1502.88 795.468C1474.72 811.322 1448.65 836.727 1423.43 861.299C1408.78 875.583 1393.62 890.343 1378.18 903.129C1342.96 932.232 1305.53 946.612 1264.49 946.623Z" fill="#FAC515"/>
<path d="M1272.1 915.629C1262.32 915.629 1252.21 914.796 1241.68 913.143C1205.24 907.398 1172.14 891.164 1132.66 870.516C1088.37 847.371 1046.83 836.108 1005.63 836.084C1005.6 836.084 1005.56 836.084 1005.51 836.084C970.407 836.084 934.771 843.982 900.306 851.617C894.543 852.89 888.78 854.175 883.038 855.411L876.564 856.803C829.298 866.996 780.429 877.534 732.11 884.111C683.088 890.783 626.121 897.217 570.333 888.963C507.931 879.734 457.842 853.663 417.203 809.288C406.019 797.073 396.333 782.587 386.96 768.565C369.477 742.411 352.962 717.708 328.363 708.847C297.222 697.643 264.979 707.99 237.552 719.587C209.852 731.302 182.139 747.62 155.339 763.391C105.717 792.601 54.4159 822.811 0.655028 825.475L0.5714 820.718C53.9072 818.078 105.006 787.987 154.426 758.895C181.282 743.089 209.058 726.735 236.876 714.96C264.617 703.233 297.243 692.779 328.935 704.185C354.251 713.295 371.03 738.402 388.793 764.973C398.089 778.876 407.691 793.256 418.701 805.268C506.405 901.047 626.351 893.733 731.887 879.365C780.143 872.788 828.984 862.262 876.216 852.081L882.689 850.69C888.431 849.453 894.187 848.18 899.95 846.896C934.499 839.236 970.226 831.327 1005.51 831.327C1005.56 831.327 1005.59 831.327 1005.63 831.327C1047.11 831.351 1088.93 842.673 1133.47 865.961C1172.8 886.525 1205.76 902.7 1241.94 908.397C1295.99 916.913 1340.25 903.723 1381.24 866.889C1395.7 853.901 1409.8 838.76 1423.43 824.131C1447.03 798.81 1471.43 772.632 1498.55 756.576C1528.91 738.605 1561.97 733.514 1599.63 741.043C1635.11 748.131 1669.77 765.436 1699.01 781.433C1705.12 784.775 1711.36 788.26 1717.39 791.626C1782.91 828.187 1850.66 865.997 1918.49 820.884L1919.51 825.321C1897.01 840.283 1874.57 846.277 1852.25 846.277C1806.34 846.277 1760.93 820.932 1716.52 796.158C1710.5 792.792 1704.27 789.319 1698.16 785.977C1633.18 750.427 1564.13 722.798 1499.46 761.083C1472.64 776.961 1448.38 802.996 1424.92 828.175C1411.24 842.852 1397.09 858.04 1382.54 871.111C1360.89 890.569 1338.47 903.307 1314 910.074C1300.58 913.773 1286.7 915.629 1272.1 915.629Z" fill="#FAC515"/>
<path d="M1277.85 880.352C1266.36 880.352 1254.39 879.222 1241.85 876.975C1204.93 870.35 1170.9 853.033 1134.89 834.693L1131.78 833.111C1090.09 811.893 1050.64 801.367 1011.18 800.927C976.853 800.534 942.053 808.36 908.375 815.925C903.093 817.114 897.818 818.292 892.557 819.445L882.285 821.693C834.392 832.195 784.861 843.054 735.887 849.833C685.819 856.767 627.64 863.44 570.779 854.876C506.677 845.219 455.689 817.875 414.882 771.3C404.123 759.026 394.897 744.765 385.964 730.993C368.808 704.506 352.599 679.493 327.583 670.609C296.601 659.607 264.401 670.371 236.994 682.348C209.831 694.218 182.627 710.595 156.321 726.437C106.421 756.481 54.8131 787.559 0.641088 789.783L0.5714 785.025C54.3044 782.825 105.696 751.878 155.394 721.954C181.756 706.076 209.016 689.662 236.304 677.745C264.017 665.625 296.601 654.755 328.147 665.959C353.909 675.105 370.382 700.533 387.831 727.472C396.688 741.138 405.837 755.268 416.429 767.363C504.342 867.709 627.306 860.109 735.664 845.112C784.575 838.344 834.071 827.485 881.937 816.983L892.208 814.735C897.469 813.582 902.737 812.404 908.019 811.215C941.788 803.627 976.721 795.789 1011.2 796.169C1050.93 796.61 1090.63 807.207 1132.57 828.544L1135.68 830.126C1171.57 848.406 1205.47 865.664 1242.15 872.241C1298.67 882.374 1343.65 869.672 1383.69 832.278C1397.72 819.172 1411.35 803.9 1424.53 789.129C1447.66 763.201 1471.58 736.404 1498.54 720.336C1566.61 679.779 1637.82 713.652 1699.22 748.583C1704.91 751.818 1710.73 755.196 1716.36 758.455C1782.64 796.847 1851.17 836.536 1918.43 785.251L1919.57 789.592C1896.22 807.397 1872.77 814.426 1849.36 814.426C1804.33 814.426 1759.41 788.403 1715.47 762.951C1709.85 759.692 1704.03 756.326 1698.34 753.091C1637.38 718.409 1566.7 684.762 1499.46 724.82C1472.82 740.698 1449.05 767.34 1426.06 793.101C1412.84 807.92 1399.16 823.251 1385.03 836.441C1353.36 866.009 1318.69 880.34 1277.85 880.352Z" fill="#FAC515"/>
<path d="M1284.2 842.007C1267.66 842.007 1251.76 839.391 1236.81 836.037C1205.39 828.984 1174.26 817.174 1144.16 805.756C1096.99 787.868 1048.23 769.361 997.974 769.207C997.591 769.207 997.208 769.207 996.824 769.207C944.576 769.207 891.449 779.863 840.057 790.187C804.748 797.276 768.241 804.602 732.368 808.396C682.739 813.653 625.055 818.47 568.521 809.122C505.241 798.655 454.449 772.192 413.231 728.245C403.412 717.767 394.618 705.921 386.124 694.467C367.776 669.729 350.446 646.37 325.06 639.138C293.751 630.218 261.662 640.982 234.395 652.685C208.277 663.901 182.062 678.982 156.718 693.564C106.616 722.394 54.7992 752.199 0.634113 754.126L0.578375 749.368C54.3254 747.453 105.926 717.767 155.833 689.056C181.233 674.439 207.497 659.334 233.719 648.071C261.258 636.236 293.703 625.366 325.52 634.441C351.617 641.874 369.219 665.614 387.852 690.733C396.291 702.115 405.022 713.878 414.708 724.213C503.687 819.112 625.243 814.985 732.194 803.662C767.99 799.868 804.463 792.554 839.729 785.477C891.581 775.07 945.189 764.295 997.974 764.473C1048.53 764.628 1097.45 783.182 1144.76 801.129C1174.8 812.523 1205.87 824.31 1237.16 831.339C1279.89 840.937 1330.39 844.41 1381.09 797.406C1395.83 783.753 1410.08 767.696 1423.87 752.163C1447.11 725.985 1471.14 698.916 1498.21 682.467C1566.64 640.887 1637.55 677.269 1698.64 714.651C1703.64 717.707 1708.66 720.824 1713.71 723.952C1781.11 765.769 1850.8 809.026 1918.35 749.642L1919.62 753.876C1888.88 780.91 1854.82 789.235 1815.48 779.364C1780.79 770.646 1746.2 749.19 1712.75 728.435C1707.72 725.307 1702.7 722.191 1697.7 719.135C1637.06 682.039 1566.71 645.894 1499.15 686.963C1472.39 703.221 1448.51 730.124 1425.4 756.148C1411.56 771.728 1397.25 787.844 1382.42 801.593C1348.85 832.707 1315.39 842.007 1284.2 842.007Z" fill="#FAC515"/>
<path d="M1285.71 801.985C1264.92 801.985 1244.24 797.704 1226.14 793.244C1204.07 787.808 1181.81 781.493 1160.29 775.391C1101.61 758.74 1040.93 741.53 979.626 741.09C978.497 741.078 977.369 741.078 976.24 741.078C927.343 741.078 877.7 748.488 829.653 755.66C791.299 761.381 751.635 767.304 712.592 769.421C664.357 772.037 612.798 773.12 562.514 763.474C505.631 752.556 458.727 729.482 419.126 692.933C407.998 682.669 398.005 670.835 388.34 659.405C367.923 635.249 348.641 612.437 321.416 606.871C289.884 600.425 257.969 611.355 230.911 622.88C206.215 633.406 181.38 647.083 157.353 660.297C106.978 688.033 54.8828 716.697 0.627148 718.445L0.5714 713.688C54.4159 711.963 106.309 683.395 156.489 655.778C180.557 642.528 205.441 628.839 230.221 618.265C257.523 606.621 289.751 595.608 321.729 602.149C349.645 607.858 369.205 631.003 389.908 655.504C399.51 666.862 409.44 678.613 420.436 688.759C507.081 768.719 616.617 769.873 712.487 764.675C751.447 762.558 791.076 756.647 829.395 750.926C878.613 743.588 929.51 736 979.626 736.345C1041.15 736.785 1101.94 754.031 1160.73 770.705C1182.25 776.807 1204.49 783.122 1226.53 788.546C1284.09 802.723 1326.27 803.127 1371.53 763.296C1388.4 748.441 1404.59 730.35 1420.24 712.843C1444.27 685.964 1469.12 658.168 1497.08 641.422C1528.06 622.868 1561.45 619.003 1599.13 629.6C1633.41 639.234 1666.9 659.488 1697.97 679.945C1702.07 682.645 1706.2 685.381 1710.34 688.128C1779.11 733.811 1850.22 781.053 1918.29 713.997L1919.69 718.112C1888.69 748.643 1854.09 758.348 1813.89 747.798C1778.51 738.509 1743.34 715.15 1709.33 692.553C1705.19 689.805 1701.07 687.07 1696.98 684.37C1633.52 642.611 1565.89 605.254 1498.01 645.894C1470.37 662.45 1445.66 690.079 1421.76 716.804C1406.06 734.37 1389.81 752.544 1372.81 767.506C1350.41 787.226 1326.88 798.227 1300.88 801.153C1295.84 801.736 1290.77 801.985 1285.71 801.985Z" fill="#FAC515"/>
<path d="M1283.37 764.057C1266.01 764.057 1248.55 759.181 1231.61 754.447C1226.17 752.924 1220.56 751.355 1215.07 749.987C1120.48 726.39 1033.74 715.008 949.913 715.305C908.236 715.436 865.896 719.254 824.943 722.953C786.038 726.461 745.81 730.101 706.174 730.565C658.489 731.124 607.53 730.16 557.943 719.361C501.91 707.158 455.508 684.156 416.081 649.01C406.757 640.697 398.103 631.467 389.734 622.547C369.923 601.424 351.212 581.466 326.189 575.805C292.574 568.205 257.843 579.885 228.304 592.302C204.8 602.185 181.122 614.661 158.217 626.733C107.501 653.458 55.0501 681.099 0.620184 682.74L0.5714 677.983C54.6041 676.342 106.86 648.808 157.394 622.178C180.334 610.094 204.055 597.594 227.635 587.675C257.432 575.139 292.483 563.376 326.558 571.083C352.174 576.876 371.135 597.095 391.211 618.503C399.531 627.376 408.144 636.558 417.37 644.788C503.611 721.656 611.655 726.901 706.153 725.795C745.726 725.331 785.92 721.704 824.789 718.195C865.77 714.496 908.152 710.667 949.899 710.536C1033.87 710.274 1120.74 721.632 1215.47 745.265C1220.98 746.645 1226.61 748.215 1232.06 749.737C1250.43 754.875 1269.44 760.18 1288.12 759.157C1312.3 757.825 1337.4 746.098 1362.71 724.273C1380.42 709.001 1397.41 690.245 1413.85 672.108C1436.81 646.762 1460.56 620.549 1486.76 603.303C1559.04 555.705 1629.57 597.142 1695.63 643.682C1699.19 646.191 1702.78 648.737 1706.38 651.294C1776.68 701.175 1849.38 752.758 1918.24 678.352L1919.73 682.372C1888.37 716.257 1853.12 727.175 1811.96 715.745C1775.81 705.707 1739.97 680.278 1705.3 655.682C1701.7 653.125 1698.12 650.58 1694.56 648.071C1629.03 601.9 1559.09 560.76 1487.76 607.739C1461.84 624.807 1438.21 650.889 1415.36 676.104C1398.86 694.313 1381.81 713.128 1363.96 728.519C1338.28 750.653 1312.8 762.558 1288.2 763.902C1286.6 764.009 1284.99 764.057 1283.37 764.057Z" fill="#FAC515"/>
<path d="M1274.1 722.75C1256.14 722.75 1238.07 717.089 1220.58 711.606C1212.26 709.001 1203.66 706.302 1195.25 704.28C1121.65 686.594 1046.69 688.283 974.212 689.912C957.376 690.293 939.976 690.685 922.82 690.828C896.696 691.054 870.119 691.791 844.419 692.517C791.906 693.98 737.608 695.502 684.217 692.66C596.582 687.997 496.12 676.996 412.841 605.135C405.607 598.891 398.778 592.432 392.179 586.176C370.828 565.957 350.655 546.856 323.611 542.753C289.549 537.591 255.014 549.33 225.719 561.497C203.518 570.715 181.115 582.014 159.45 592.944C108.274 618.753 55.3567 645.454 0.634113 647.072L0.58534 642.314C54.9316 640.697 107.661 614.103 158.663 588.377C180.362 577.435 202.8 566.112 225.064 556.871C254.582 544.62 289.403 532.798 323.862 538.019C351.498 542.206 371.915 561.545 393.531 582.014C400.109 588.246 406.911 594.68 414.095 600.877C496.865 672.298 596.966 683.24 684.3 687.89C737.622 690.733 791.892 689.211 844.37 687.748C870.077 687.034 896.661 686.285 922.799 686.059C939.942 685.916 957.342 685.523 974.17 685.143C1046.76 683.513 1121.82 681.825 1195.63 699.558C1204.1 701.592 1212.73 704.303 1221.07 706.92C1238.95 712.522 1257.46 718.326 1275.65 717.981C1298.49 717.553 1322.38 707.646 1346.64 688.533C1367.6 672.024 1387.43 650.509 1406.61 629.707C1430.22 604.1 1454.63 577.625 1481.43 560.118C1514.86 538.269 1550.12 533.773 1589.24 546.357C1624.64 557.751 1659.91 582.144 1692.75 606.812C1695.86 609.143 1698.96 611.486 1702.09 613.853C1770.67 665.626 1848.39 724.297 1918.2 642.754L1919.77 646.679C1887.98 683.823 1852.02 695.823 1809.84 683.383C1772.86 672.476 1736.31 644.883 1700.97 618.206C1697.84 615.851 1694.73 613.496 1691.64 611.177C1625.59 561.58 1555.04 517.122 1482.44 564.578C1455.9 581.919 1431.61 608.263 1408.11 633.739C1388.85 654.624 1368.93 676.223 1347.81 692.874C1323.19 712.272 1298.92 722.322 1275.68 722.762C1275.16 722.739 1274.63 722.75 1274.1 722.75Z" fill="#FAC515"/>
<path d="M1262.7 681.063C1261.05 681.063 1259.41 681.016 1257.76 680.921C1241.94 679.981 1226.14 674.403 1210.86 669.003C1201.68 665.756 1192.19 662.402 1182.84 660.119C1117.06 644.027 1050.36 651.401 985.849 658.537C954.763 661.974 922.611 665.53 890.87 666.446C822.176 668.421 747.622 664.662 669.29 655.254C587.642 645.454 493.715 629.469 412.339 563.495C406.2 558.524 400.214 552.803 394.423 547.272C384.417 537.71 374.069 527.838 362.884 521.796C349.979 514.839 335.513 510.712 319.897 509.546C286.95 507.084 254.255 518.062 226.618 529.135C204.612 537.948 182.383 548.676 160.893 559.035C109.18 583.976 55.726 609.761 0.627148 611.391L0.578375 606.633C55.3149 605.016 108.588 579.314 160.112 554.468C181.637 544.085 203.887 533.357 225.956 524.508C253.781 513.364 286.706 502.303 319.994 504.8C335.854 505.99 350.557 510.188 363.7 517.265C375.156 523.45 385.636 533.452 395.761 543.122C401.51 548.616 407.461 554.29 413.517 559.202C494.461 624.819 588.074 640.732 669.471 650.509C747.726 659.905 822.197 663.663 890.808 661.689C922.486 660.773 954.596 657.229 985.654 653.791C1050.31 646.643 1117.15 639.246 1183.23 655.409C1192.66 657.716 1202.19 661.082 1211.42 664.341C1226.59 669.705 1242.27 675.247 1257.85 676.163C1282.91 677.65 1309.47 667.576 1336.76 646.227C1358.16 629.481 1378.52 607.835 1398.22 586.902C1423.09 560.451 1448.82 533.107 1477 515.243C1551.3 468.144 1620.42 514.422 1690.56 570.322C1692.94 572.213 1695.32 574.116 1697.72 576.031C1767.87 632.098 1847.37 695.657 1918.17 607.073L1919.82 610.915C1893.83 643.42 1866.79 655.897 1839.51 655.897C1791.06 655.897 1741.86 616.576 1696.54 580.349C1694.14 578.434 1691.76 576.531 1689.39 574.64C1619.8 519.18 1551.26 473.247 1477.98 519.703C1450.06 537.401 1424.46 564.625 1399.7 590.946C1379.94 611.962 1359.5 633.679 1337.93 650.556C1312.02 670.823 1286.74 681.063 1262.7 681.063Z" fill="#FAC515"/>
<path d="M844.391 641.517C778.408 641.517 710.536 629.552 646.755 616.481C569.685 600.698 488.057 578.434 413.335 522.903C407.719 518.728 402.221 514.089 396.897 509.605C385.023 499.603 373.804 490.148 360.996 484.962C347.575 479.527 333.255 476.791 317.221 476.589C284.971 476.173 252.749 486.984 228.284 496.451C206.487 504.884 184.46 515.041 163.157 524.853C110.672 549.045 56.395 574.045 0.634113 575.71L0.58534 570.953C56.0047 569.299 110.107 544.37 162.433 520.262C183.763 510.438 205.811 500.269 227.67 491.813C252.283 482.286 284.713 471.415 317.242 471.831C333.492 472.046 348.014 474.817 361.637 480.335C374.752 485.64 386.64 495.654 398.13 505.348C403.419 509.808 408.897 514.422 414.45 518.549C488.845 573.831 570.228 596.024 647.089 611.771C714.139 625.508 785.718 638.032 854.781 636.665C895.219 635.868 936.025 627.602 975.487 619.597C1036.2 607.288 1098.98 594.561 1161.63 608.869C1173.39 611.557 1185.18 616.196 1196.58 620.692C1212.04 626.781 1228.03 633.073 1244 634.476C1267.82 636.558 1293.1 628.196 1319.14 609.619C1343.93 591.945 1367.22 567.587 1389.76 544.037C1413.48 519.251 1438 493.609 1464.39 475.578C1500.22 451.101 1535.63 444.215 1569.64 455.121C1609.1 467.776 1646.14 498.711 1678.82 526.019C1683.39 529.836 1688.01 533.738 1692.66 537.674C1764.61 598.439 1846.15 667.303 1918.14 571.476L1919.85 575.222C1893.44 610.38 1865.87 623.867 1838 623.867C1788.44 623.867 1737.94 581.229 1691.42 541.932C1686.78 538.007 1682.16 534.106 1677.59 530.288C1645.07 503.123 1608.21 472.331 1569.12 459.795C1535.63 449.067 1500.74 455.858 1465.42 479.99C1439.25 497.878 1414.82 523.402 1391.21 548.093C1368.58 571.738 1345.19 596.191 1320.21 614.007C1293.77 632.859 1268.08 641.351 1243.85 639.222C1227.64 637.806 1211.53 631.455 1195.95 625.33C1184.61 620.87 1172.88 616.243 1161.25 613.591C1098.95 599.366 1036.34 612.045 975.801 624.319C936.262 632.335 895.379 640.625 854.795 641.422C851.339 641.482 847.869 641.517 844.391 641.517Z" fill="#FAC515"/>
<path d="M815.675 614.328C753.029 614.328 688.871 595.049 626.714 576.376L623.592 575.436C562.856 557.192 483.549 529.622 408.806 477.945C405.615 475.733 402.444 473.461 399.378 471.272C385.713 461.484 372.8 452.243 357.867 448.199C344.153 444.488 329.624 443.097 313.437 443.929C281.229 445.594 249.154 456.548 224.82 465.908C205.239 473.437 185.407 482.143 166.237 490.552C112.692 514.054 57.3217 538.364 0.634113 540.029L0.58534 535.272C56.9455 533.619 112.156 509.379 165.547 485.937C184.738 477.517 204.584 468.799 224.214 461.258C248.673 451.85 280.916 440.849 313.36 439.172C329.722 438.327 344.425 439.743 358.313 443.501C373.588 447.64 386.647 456.988 400.472 466.896C403.531 469.084 406.688 471.344 409.865 473.544C484.364 525.067 563.483 552.565 624.087 570.762L627.208 571.702C692.676 591.374 760.374 611.712 826.016 609.404C869.603 607.87 913.42 595.584 955.788 583.691C1016.93 566.54 1080.17 548.795 1143.74 563.138C1156.99 566.124 1170.09 571.928 1182.76 577.554C1197.05 583.893 1211.84 590.446 1226.71 592.837C1252.77 597.047 1280.79 588.579 1310 567.694C1335.12 549.723 1358.84 525.281 1381.79 501.649C1406.75 475.947 1432.56 449.364 1460.33 430.882C1497.02 406.476 1532.86 400.446 1566.86 412.958C1605.78 427.278 1641.86 458.974 1676.75 489.636C1680.6 493.026 1684.49 496.463 1688.41 499.936C1761.91 565.018 1845.23 638.794 1918.13 535.831L1919.9 539.494C1886.72 586.367 1848.5 601.424 1803.06 585.57C1763.44 571.738 1724.64 537.389 1687.12 504.158C1683.21 500.685 1679.32 497.248 1675.47 493.87C1640.74 463.351 1604.83 431.798 1566.27 417.62C1532.82 405.323 1497.51 411.269 1461.34 435.33C1433.79 453.658 1408.09 480.133 1383.23 505.728C1360.2 529.456 1336.39 553.98 1311.08 572.083C1281.45 593.277 1252.98 601.852 1226.45 597.57C1211.36 595.132 1196.47 588.531 1182.06 582.156C1169.47 576.578 1156.46 570.81 1143.38 567.86C1080.21 553.612 1017.19 571.297 956.241 588.389C913.775 600.306 869.861 612.628 826.072 614.162C822.608 614.269 819.138 614.328 815.675 614.328Z" fill="#FAC515"/>
<path d="M795.543 584.202C738.319 584.202 679.757 561.461 623.09 539.47L615.223 536.414C542.508 508.262 472.295 474.02 406.527 434.664C375.832 416.288 348.662 408.986 318.44 410.984C284.051 413.256 250.513 424.495 222.242 435.187C204.94 441.729 187.4 449.043 170.432 456.108C115.459 479.015 58.6179 502.707 0.627148 504.349L0.578375 499.591C58.2555 497.95 114.943 474.341 169.763 451.493C186.738 444.417 204.298 437.102 221.629 430.549C250.025 419.809 283.717 408.522 318.329 406.226C348.92 404.205 376.41 411.59 407.447 430.168C473.117 469.465 543.233 503.659 615.836 531.775L623.71 534.832C681.039 557.085 740.333 580.134 798.017 579.433C845.855 578.874 893.623 562.258 939.823 546.178C1002.17 524.484 1066.63 502.053 1132.08 518.835C1145.49 522.272 1158.62 528.921 1171.32 535.355C1185.63 542.598 1200.43 550.091 1215.5 552.862C1240.12 557.37 1266.61 550.496 1294.23 532.429C1322.77 513.756 1349.42 486.508 1375.21 460.164C1400.82 433.986 1427.31 406.916 1455.74 388.112C1490.78 364.932 1524.21 358.271 1555.12 368.31C1596.45 381.738 1634.42 416.645 1671.12 450.399L1674.13 453.159C1677.52 456.263 1680.92 459.426 1684.36 462.602C1722.36 497.712 1761.64 534.023 1801.66 548.593C1847.17 565.16 1885.26 549.33 1918.08 500.198L1919.92 503.778C1894.92 541.195 1866.96 559.713 1835.11 559.725C1824.23 559.725 1812.9 557.56 1801.08 553.255C1760.68 538.543 1721.21 502.065 1683.04 466.789C1679.61 463.613 1676.19 460.461 1672.81 457.357L1669.81 454.598C1633.29 421.01 1595.52 386.293 1554.6 372.996C1524.22 363.124 1491.3 369.713 1456.76 392.561C1428.55 411.222 1402.17 438.185 1376.65 464.255C1350.77 490.707 1324 518.05 1295.24 536.878C1267.2 555.217 1240.28 562.199 1215.21 557.608C1199.89 554.801 1184.97 547.249 1170.54 539.934C1157.93 533.547 1144.9 526.946 1131.68 523.557C1066.72 506.906 1002.5 529.254 940.388 550.864C894.055 566.98 846.147 583.655 798.045 584.214C797.209 584.202 796.372 584.202 795.543 584.202Z" fill="#FAC515"/>
<path d="M777.788 549.758C721.595 549.758 664.733 522.32 609.683 495.761C606.464 494.203 603.258 492.657 600.067 491.123C569.42 476.387 538.487 460.14 508.579 444.429C476.65 427.659 443.634 410.306 410.91 394.785C344.39 363.219 276.902 383.557 218.869 405.085C204.682 410.354 190.271 416.027 176.341 421.51C119.389 443.929 60.4924 467.122 0.627148 468.668L0.58534 463.91C60.1579 462.364 118.901 439.231 175.714 416.859C189.651 411.365 204.068 405.691 218.277 400.422C276.637 378.764 344.523 358.331 411.656 390.182C444.421 405.727 477.451 423.08 509.401 439.862C539.296 455.573 570.214 471.808 600.826 486.532C604.018 488.066 607.223 489.612 610.449 491.17C666.782 518.347 725.03 546.464 782.282 544.929C830.218 543.657 878.146 524.746 924.493 506.454C987.926 481.418 1053.52 455.537 1120.11 474.484C1134.16 478.48 1147.7 486.33 1160.8 493.93C1174.36 501.791 1188.38 509.927 1202.8 513.614C1229.48 520.441 1258.55 513.518 1289.18 493.05C1317.72 473.984 1344.46 446.736 1370.31 420.368C1394.85 395.356 1420.22 369.499 1447.17 350.553C1485.31 323.733 1521.24 316.24 1553.94 328.288C1594.65 343.274 1631.87 378.966 1667.86 413.482L1673.22 418.62C1677.72 422.925 1682.24 427.29 1686.76 431.667C1721.97 465.706 1758.36 500.911 1797.79 517.883C1843.08 537.377 1883.54 519.43 1918.06 464.529L1919.97 468.014C1893.9 509.451 1864.52 530.276 1832.28 530.276C1820.9 530.276 1809.18 527.684 1797.11 522.486C1757.32 505.359 1720.75 470 1685.39 435.806C1680.87 431.429 1676.36 427.076 1671.86 422.77L1666.5 417.632C1630.68 383.284 1593.65 347.781 1553.36 332.938C1521.21 321.092 1485.84 328.502 1448.23 354.953C1421.47 373.769 1396.19 399.53 1371.74 424.459C1345.79 450.923 1318.94 478.278 1290.2 497.486C1259.1 518.264 1229.56 525.269 1202.39 518.323C1187.72 514.577 1173.58 506.37 1159.9 498.437C1146.91 490.909 1133.48 483.118 1119.65 479.182C1053.61 460.39 988.288 486.175 925.12 511.092C878.634 529.432 830.559 548.402 782.324 549.687C780.812 549.734 779.3 549.758 777.788 549.758Z" fill="#FAC515"/>
<path d="M771.063 510.093C713.686 510.093 656.831 478.849 601.788 448.603L598.673 446.891C584.465 439.088 570.04 430.834 556.089 422.854C508.314 395.534 458.922 367.287 408.702 351.409C346.307 331.689 281.738 351.456 215.566 375.303C205.365 378.978 195.003 382.82 184.975 386.531C125.145 408.7 63.2797 431.619 0.620184 432.963L0.58534 428.206C62.9661 426.862 124.685 403.99 184.383 381.88C194.41 378.169 204.779 374.328 214.988 370.641C281.445 346.687 346.314 326.837 409.203 346.723C459.612 362.66 509.109 390.967 556.967 418.334C570.911 426.315 585.329 434.557 599.523 442.347L602.638 444.06C659.27 475.174 717.832 507.37 776.659 505.217C823.354 503.516 870.362 483.57 915.824 464.267C979.947 437.055 1046.25 408.902 1112.98 431.31C1127.17 436.079 1140.63 445.142 1153.65 453.92C1166.59 462.638 1179.97 471.665 1193.9 476.268C1220.7 485.129 1249.96 479.669 1280.89 460.045C1311.75 440.468 1340.4 411.031 1368.12 382.57C1393.46 356.547 1419.66 329.632 1447.57 310.186C1486.18 283.282 1521.01 276.777 1554.06 290.312C1594.03 306.677 1630.46 342.976 1665.7 378.074C1668.21 380.572 1670.71 383.07 1673.2 385.543C1677.24 389.552 1681.29 393.607 1685.35 397.675C1720.98 433.344 1757.83 470.238 1798.02 487.424C1843.31 506.799 1883.68 487.115 1918.01 428.919L1919.98 432.297C1884.91 491.753 1843.65 511.853 1797.34 492.039C1756.76 474.674 1719.74 437.614 1683.94 401.778C1679.88 397.711 1675.84 393.667 1671.8 389.659C1669.31 387.173 1666.8 384.687 1664.29 382.19C1629.23 347.27 1592.98 311.149 1553.4 294.95C1520.94 281.665 1486.67 288.087 1448.63 314.61C1420.92 333.925 1394.81 360.733 1369.56 386.673C1341.73 415.254 1312.96 444.797 1281.87 464.529C1250.46 484.462 1220.68 489.993 1193.38 480.966C1179.19 476.268 1165.68 467.169 1152.63 458.368C1139.73 449.674 1126.4 440.682 1112.45 436.008C1046.33 413.815 980.33 441.824 916.507 468.918C870.899 488.28 823.737 508.297 776.729 510.01C774.833 510.057 772.952 510.093 771.063 510.093Z" fill="#FAC515"/>
<path d="M777.342 466.622C776.945 466.622 776.554 466.622 776.15 466.622C706.696 466.099 640.72 426.029 576.911 387.268C522.223 354.049 465.668 319.701 407.189 310.424C342.377 300.136 276.56 323.245 212.904 345.593L212.654 345.676C207.755 347.401 202.849 349.125 197.95 350.862C133.848 373.495 67.5652 396.902 0.606244 397.306L0.59928 392.549C67.2726 392.144 133.416 368.785 197.386 346.199C202.292 344.463 207.19 342.738 212.096 341.014L212.347 340.931C276.198 318.511 342.23 295.331 407.454 305.678C466.281 315.015 522.997 349.458 577.852 382.772C641.438 421.391 707.191 461.341 776.171 461.853C776.561 461.853 776.958 461.853 777.349 461.853C823.988 461.853 871.296 441.253 917.057 421.319C981.689 393.167 1048.53 364.064 1114.8 392.251C1127.95 397.841 1140.37 407.249 1152.38 416.36C1166.48 427.04 1181.05 438.089 1196.68 442.764C1222.17 450.375 1250.16 444.667 1279.87 425.815C1311.31 405.87 1340.48 375.815 1368.7 346.759C1393.65 321.056 1419.46 294.486 1446.83 274.85C1485.18 247.34 1519.53 240.287 1551.84 253.287C1591.76 269.343 1627.99 306.035 1663.02 341.525C1665.34 343.88 1667.66 346.223 1669.97 348.554C1674.38 353.003 1678.8 357.51 1683.23 362.03C1718.35 397.841 1754.67 434.866 1794.32 453.194C1841.44 474.983 1883.05 454.812 1918 393.262L1920 396.569C1893.59 443.097 1863.44 466.467 1830.03 466.467C1818.28 466.467 1806.12 463.577 1793.59 457.785C1753.56 439.279 1717.08 402.087 1681.79 366.109C1677.36 361.59 1672.95 357.094 1668.54 352.646C1666.23 350.315 1663.91 347.96 1661.59 345.605C1626.73 310.305 1590.69 273.803 1551.19 257.913C1519.47 245.152 1485.68 252.121 1447.89 279.227C1420.71 298.72 1395 325.207 1370.13 350.814C1341.8 379.989 1312.51 410.151 1280.83 430.263C1250.65 449.412 1222.17 455.192 1196.2 447.438C1180.23 442.668 1165.49 431.5 1151.24 420.701C1139.34 411.686 1127.04 402.349 1114.12 396.866C1048.53 368.976 982.037 397.937 917.74 425.934C871.812 445.939 824.322 466.61 777.342 466.622Z" fill="#FAC515"/>
<path d="M786.958 432.071C715.156 432.071 646.009 392.073 579.106 353.371C525.658 322.46 470.392 290.49 414.186 279.179C349.47 266.144 283.856 289.741 220.402 312.553L210.528 316.097C142.371 340.598 71.8996 365.943 0.557461 361.614L0.655028 356.856C71.6487 361.15 141.959 335.876 209.95 311.435L219.824 307.89C283.501 284.995 349.345 261.327 414.506 274.446C471.006 285.828 526.411 317.869 579.998 348.864C647.493 387.898 717.302 428.253 789.55 427.29C834.817 426.671 880.536 407.19 924.751 388.338C986.574 361.982 1050.51 334.734 1114.5 358.367C1127.37 363.124 1139.65 371.45 1151.52 379.513C1164.85 388.564 1178.65 397.937 1193.17 402.064C1219.94 409.676 1249.56 403.681 1281.18 384.235C1311.89 365.348 1340.79 337.553 1368.74 310.673C1393.07 287.267 1418.23 263.075 1444.56 244.747C1484.91 216.666 1518.72 209.245 1550.97 221.388C1591.26 236.564 1628.24 271.603 1664 305.5C1666.18 307.557 1668.34 309.615 1670.51 311.661C1674.7 315.621 1678.89 319.617 1683.1 323.625C1719.02 357.879 1756.17 393.286 1796.33 410.246C1842.19 429.609 1883.14 411.852 1918.05 357.475L1919.93 360.983C1884.29 416.503 1842.48 434.628 1795.66 414.861C1755.14 397.758 1717.83 362.184 1681.74 327.776C1677.54 323.768 1673.34 319.772 1669.16 315.823C1666.99 313.778 1664.83 311.72 1662.64 309.662C1627.06 275.932 1590.26 241.06 1550.36 226.039C1518.69 214.109 1485.4 221.46 1445.61 249.148C1419.43 267.357 1394.36 291.489 1370.1 314.812C1342.05 341.787 1313.05 369.689 1282.12 388.707C1250.04 408.427 1219.96 414.504 1192.71 406.75C1177.89 402.539 1163.95 393.072 1150.48 383.926C1138.71 375.945 1126.55 367.679 1113.9 363.017C1050.54 339.622 986.936 366.728 925.419 392.953C881.045 411.864 835.165 431.417 789.564 432.036C788.7 432.071 787.829 432.071 786.958 432.071Z" fill="#FAC515"/>
<path d="M799.208 396.117C739.239 396.117 679.415 366.014 621.543 336.887L614.561 333.378C605.035 328.597 595.342 323.637 585.97 318.832C529.122 289.741 470.337 259.65 410.485 248.898C348.787 237.813 286.462 260.292 226.179 282.022L218.368 284.84C151.548 308.866 75.8088 336.102 0.501723 325.933L0.724705 321.187C75.6276 331.309 147.903 305.321 217.796 280.19L225.608 277.371C286.1 255.558 348.648 232.996 410.785 244.164C470.901 254.964 529.812 285.114 586.785 314.277C596.157 319.07 605.843 324.03 615.362 328.811L622.344 332.32C680.342 361.507 740.326 391.74 800.198 391.348C845.102 391.098 890.215 372.258 933.844 354.037C993.215 329.251 1054.6 303.609 1116.48 324.303C1128.81 328.43 1140.7 335.59 1152.2 342.512C1165.86 350.731 1179.97 359.235 1194.73 362.529C1219.8 368.131 1247.44 362.969 1276.86 347.21C1309.13 329.917 1339.7 303.18 1369.28 277.324C1395.08 254.762 1421.76 231.426 1449.54 214.359C1487.72 190.905 1519.4 184.518 1549.26 194.259C1590.04 207.568 1627.92 240.43 1664.56 272.21L1668.97 276.039C1671.93 278.608 1674.91 281.201 1677.91 283.806C1754.83 350.719 1842 426.564 1918.13 321.699L1919.88 325.398C1885.28 373.067 1845.32 388.22 1797.73 371.711C1756.28 357.332 1715.79 322.103 1676.64 288.04C1673.64 285.435 1670.66 282.842 1667.7 280.273L1663.29 276.444C1626.83 244.819 1589.13 212.111 1548.73 198.921C1519.39 189.347 1488.16 195.674 1450.48 218.819C1422.86 235.779 1396.26 259.043 1370.54 281.534C1340.87 307.486 1310.18 334.318 1277.69 351.73C1247.88 367.703 1219.85 372.924 1194.37 367.227C1179.32 363.873 1165.06 355.286 1151.28 346.973C1139.87 340.098 1128.07 332.998 1115.94 328.942C1054.67 308.449 993.577 333.961 934.506 358.628C890.717 376.909 845.444 395.82 800.205 396.069C799.87 396.117 799.536 396.117 799.208 396.117Z" fill="#FAC515"/>
<path d="M810.351 358.628C751.552 358.628 692.202 331.796 634.755 305.821C630.191 303.751 625.641 301.706 621.118 299.672C611.857 295.509 602.436 291.215 593.321 287.065C536.006 260.922 476.741 233.888 416.868 222.78C347.728 209.958 278.978 233.888 212.493 257.033C143.695 280.987 72.5546 305.749 0.432035 290.252L0.780453 285.53C72.4431 300.933 143.36 276.241 211.936 252.371C278.63 229.155 347.603 205.142 417.168 218.046C477.256 229.19 536.627 256.272 594.039 282.462C603.147 286.613 612.568 290.906 621.822 295.069C626.344 297.103 630.895 299.16 635.466 301.218C694.049 327.705 754.632 355.108 814.365 353.823C857.562 352.908 900.828 335.424 942.673 318.523C998.929 295.794 1057.09 272.293 1115.97 288.623C1128.51 292.096 1140.69 298.589 1152.48 304.869C1165.78 311.958 1179.53 319.284 1193.72 322.186C1219.46 327.443 1246.77 322.936 1277.19 308.414C1309.28 293.095 1340.13 269.272 1369.97 246.234C1394.54 227.264 1419.94 207.639 1445.98 192.796C1487.72 169.009 1522.29 162.848 1554.76 173.409C1593.77 186.1 1630.63 214.716 1666.28 242.404L1666.68 242.713C1670.46 245.651 1674.27 248.625 1678.11 251.622C1754.63 311.411 1841.35 379.192 1918.19 285.947L1919.8 289.824C1891.86 323.733 1862.71 336.78 1833.27 336.78C1780.39 336.78 1726.54 294.7 1676.95 255.951C1673.12 252.954 1669.31 249.98 1665.53 247.043L1665.13 246.733C1629.64 219.176 1592.93 190.667 1554.24 178.084C1522.26 167.677 1488.14 173.79 1446.88 197.316C1420.97 212.076 1395.63 231.64 1371.13 250.575C1341.2 273.684 1310.25 297.59 1277.96 313.004C1247.17 327.705 1219.52 332.248 1193.41 326.92C1178.97 323.97 1165.09 316.573 1151.66 309.425C1139.98 303.192 1127.89 296.758 1115.54 293.333C1057.21 277.157 999.319 300.54 943.335 323.162C901.344 340.122 857.924 357.665 814.42 358.593C813.055 358.616 811.703 358.628 810.351 358.628Z" fill="#FAC515"/>
<path d="M818.002 319.76C762.736 319.76 706.383 297.364 651.765 275.659C644.755 272.876 637.793 270.104 630.888 267.416C620.749 263.456 610.443 259.364 600.471 255.404C540.327 231.522 478.127 206.819 415.67 196.887C350.07 186.457 284.874 207.984 221.817 228.798C149.987 252.514 75.7182 277.026 0.362347 254.559L0.843166 249.873C75.6904 272.198 149.708 247.756 221.287 224.124C284.539 203.239 349.937 181.652 415.935 192.142C478.58 202.109 540.87 226.835 601.105 250.765C611.07 254.726 621.376 258.817 631.508 262.778C638.414 265.478 645.382 268.237 652.392 271.032C710.592 294.153 770.764 318.071 829.284 314.693C869.554 312.362 910.075 296.853 949.258 281.843C1004.85 260.554 1062.35 238.551 1120.28 253.644C1131.7 256.617 1142.91 261.945 1153.74 267.095C1165.76 272.804 1178.18 278.703 1190.82 281.344C1218.63 287.16 1248.47 282.938 1282.07 268.427C1312.42 255.321 1342.1 235.696 1370.8 216.702C1397.51 199.028 1425.14 180.76 1453.31 167.736C1492.11 149.789 1524.45 145.281 1555.07 153.547C1595.01 164.335 1633.27 190.465 1670.26 215.739L1678.62 221.448C1754.73 273.387 1841 332.26 1918.25 250.183L1919.72 254.226C1893.51 282.081 1864.68 295.866 1832.31 295.866C1821.36 295.866 1810.02 294.296 1798.23 291.156C1757.28 280.25 1716.77 252.609 1677.59 225.872L1669.23 220.163C1632.37 194.984 1594.27 168.961 1554.64 158.245C1524.42 150.086 1492.46 154.558 1454.05 172.327C1426.01 185.291 1398.46 203.512 1371.81 221.138C1343.03 240.18 1313.27 259.864 1282.75 273.03C1248.81 287.683 1218.63 291.941 1190.48 286.054C1177.63 283.366 1165.11 277.419 1153 271.662C1142.24 266.548 1131.11 261.267 1119.86 258.33C1062.44 243.379 1005.21 265.287 949.871 286.47C910.556 301.515 869.909 317.084 829.381 319.427C825.598 319.653 821.793 319.76 818.002 319.76Z" fill="#FAC515"/>
<path d="M827.786 279.346C771.328 279.346 713.679 259.733 657.813 240.715C649.8 237.992 641.514 235.173 633.445 232.485C624.344 229.452 615.244 226.395 606.136 223.327C544.132 202.43 480.009 180.819 415.99 172.173C353.644 163.752 291.501 182.984 231.405 201.585C156.314 224.825 78.6728 248.85 0.29267 218.843L0.905879 214.204C78.7425 243.998 156.105 220.056 230.918 196.899C291.187 178.25 353.512 158.959 416.22 167.427C480.399 176.097 544.598 197.732 606.687 218.653C615.787 221.721 624.888 224.79 633.989 227.811C642.058 230.499 650.35 233.317 658.364 236.041C717.623 256.201 778.896 277.062 838.447 274.338C878.641 272.507 918.883 258.068 957.802 244.117C1009.19 225.694 1062.33 206.628 1116.14 216.25C1129.19 218.581 1142.05 223.779 1154.49 228.81C1166.82 233.793 1179.57 238.943 1192.42 241.262C1218.56 245.96 1246.49 243.153 1277.81 232.687C1309.79 222.007 1341.34 204.737 1371.85 188.05C1397.82 173.838 1424.67 159.149 1451.73 148.54C1490.95 133.162 1523.51 128.916 1554.2 135.172C1594.65 143.426 1633.93 166.178 1671.91 188.169L1678.44 191.952C1758.13 238.122 1840.54 285.875 1918.34 214.419L1919.67 218.605C1884.36 251.027 1844.69 261.862 1798.35 251.729C1757.55 242.809 1716.88 219.247 1677.55 196.459L1671.02 192.677C1633.18 170.757 1594.03 148.088 1553.87 139.893C1523.51 133.697 1491.25 137.919 1452.36 153.178C1425.41 163.752 1398.62 178.405 1372.71 192.582C1342.13 209.316 1310.5 226.621 1278.35 237.361C1246.75 247.911 1218.55 250.742 1192.13 245.996C1179.1 243.653 1166.27 238.467 1153.85 233.448C1141.5 228.453 1128.73 223.291 1115.85 220.984C1062.49 211.445 1009.56 230.415 958.38 248.767C919.343 262.766 878.975 277.241 838.531 279.084C834.949 279.262 831.368 279.346 827.786 279.346Z" fill="#FAC515"/>
<path d="M838.622 237.48C779.028 237.48 718.508 220.698 659.953 204.452C653.361 202.62 646.79 200.8 640.232 199.004C630.344 196.293 620.449 193.545 610.554 190.798C547.95 173.409 483.214 155.414 418.889 148.064C359.358 141.249 299.647 158.424 241.893 175.015C163.06 197.672 81.5438 221.103 0.236922 183.138L0.975567 178.548C81.6831 216.238 162.892 192.891 241.433 170.317C299.34 153.666 359.226 136.456 419.077 143.307C483.535 150.681 548.333 168.688 611 186.1C620.895 188.847 630.783 191.595 640.671 194.307C647.229 196.102 653.807 197.922 660.399 199.754C719.881 216.25 781.383 233.294 841.771 232.711C883.4 232.295 925.064 218.653 965.355 205.463C1015.46 189.061 1067.27 172.089 1119.66 180.284C1132.01 182.211 1144.27 186.481 1156.14 190.608C1167.01 194.39 1178.24 198.291 1189.46 200.36C1217.81 205.594 1248.37 203.488 1282.9 193.938C1313.19 185.553 1343.45 172.458 1372.71 159.791C1398.49 148.635 1425.16 137.098 1451.79 128.797C1492.99 115.963 1529.36 112.847 1563 119.282C1601 126.549 1638.37 144.223 1674.53 161.314L1678.21 163.062C1757.8 200.717 1840.1 239.645 1918.41 178.69L1919.57 183.02C1840.34 244.688 1757.54 205.522 1677.47 167.641L1673.79 165.893C1637.74 148.849 1600.47 131.235 1562.69 124.004C1529.33 117.629 1493.22 120.721 1452.3 133.471C1425.76 141.737 1399.14 153.262 1373.4 164.394C1344.09 177.085 1313.77 190.203 1283.34 198.624C1248.56 208.246 1217.76 210.351 1189.17 205.07C1177.81 202.977 1166.51 199.04 1155.58 195.246C1143.79 191.143 1131.6 186.909 1119.4 185.006C1067.41 176.882 1015.79 193.783 965.878 210.125C925.461 223.363 883.672 237.04 841.785 237.468C840.733 237.468 839.674 237.48 838.622 237.48Z" fill="#FAC515"/>
<path d="M837.771 194.128C779.697 194.128 720.717 181.093 663.611 168.486C656.239 166.856 648.88 165.227 641.535 163.633C631.745 161.504 621.961 159.351 612.171 157.187C549.17 143.307 484.022 128.951 419.537 123.183C350.941 117.058 286.811 136.076 218.911 156.211L218.702 156.271C153.729 175.538 76.9516 189.561 0.174209 147.422L1.02435 142.891C77.2304 184.72 153.583 170.769 218.228 151.597L218.437 151.537C286.497 131.354 350.773 112.288 419.684 118.449C484.28 124.218 549.476 138.585 612.533 152.477C622.324 154.63 632.107 156.794 641.898 158.911C649.242 160.505 656.601 162.134 663.973 163.764C722.947 176.787 783.913 190.263 843.729 189.323C885.254 188.669 926.973 177.061 967.32 165.833C1016.77 152.072 1067.92 137.836 1119.29 143.58C1132.31 145.031 1145.29 148.718 1157.84 152.286C1168.08 155.188 1178.66 158.198 1189.18 159.958C1217.58 164.727 1248.31 163.645 1283.13 156.675C1313.56 150.586 1344.17 140.678 1373.77 131.092C1399.81 122.66 1426.74 113.942 1453.49 107.84C1536.66 88.858 1612.4 109.945 1675.52 133.078L1677.91 133.958C1757.44 163.11 1839.69 193.26 1918.52 142.938L1919.5 147.398C1888.43 167.225 1856.89 174.706 1825.23 174.706C1775.78 174.706 1726.06 156.473 1677.33 138.609L1674.93 137.729C1612.05 114.679 1536.6 93.6749 1453.86 112.562C1427.19 118.651 1400.3 127.358 1374.29 135.766C1344.64 145.364 1313.98 155.284 1283.45 161.397C1248.44 168.414 1217.51 169.485 1188.91 164.691C1178.31 162.907 1167.67 159.898 1157.39 156.973C1144.91 153.428 1132 149.765 1119.12 148.326C1068.07 142.617 1017.08 156.806 967.78 170.531C927.336 181.783 885.512 193.426 843.771 194.081C841.764 194.116 839.757 194.128 837.771 194.128Z" fill="#FAC515"/>
<path d="M824.427 149.42C771.258 149.42 717.288 140.214 664.928 131.294C654.385 129.498 643.487 127.643 632.818 125.895C625.299 124.67 617.787 123.433 610.268 122.184C548.466 112.003 484.552 101.465 421.474 97.2548C350.669 92.5331 284.288 111.515 220.103 129.867C177.324 142.106 142.12 147.16 109.313 145.793C69.7951 144.139 34.0823 132.995 0.125425 111.717L1.08706 107.257C78.7564 155.914 155.151 143.628 219.643 125.181C283.968 106.782 350.481 87.7638 421.579 92.5093C484.74 96.7196 548.689 107.257 610.533 117.45C618.052 118.687 625.564 119.924 633.083 121.161C643.758 122.909 654.657 124.765 665.2 126.561C723.1 136.432 782.979 146.637 841.458 144.342C882 142.748 922.939 133.958 962.526 125.455C1012.56 114.715 1064.29 103.618 1115.83 106.865C1130.7 107.804 1145.6 111.004 1160.01 114.108C1170.95 116.463 1182.27 118.901 1193.46 120.317C1220.05 123.682 1248.67 123.349 1280.96 119.294C1312.46 115.345 1344.32 108.245 1375.14 101.37C1403.24 95.1021 1432.31 88.632 1461.05 84.5525C1525.1 75.4658 1591.2 81.2699 1675.38 103.392L1677.56 103.963C1757.02 124.86 1839.2 146.459 1918.61 107.198L1919.39 111.765C1839.38 151.323 1756.9 129.641 1677.13 108.661L1674.96 108.09C1591.01 86.0273 1525.1 80.2232 1461.28 89.2861C1432.6 93.3538 1403.57 99.8239 1375.5 106.08C1344.65 112.954 1312.76 120.067 1281.17 124.027C1248.74 128.095 1219.99 128.428 1193.26 125.05C1181.99 123.623 1170.64 121.185 1159.66 118.818C1145.31 115.737 1130.48 112.538 1115.73 111.61C1064.42 108.375 1012.8 119.448 962.874 130.164C923.211 138.68 882.202 147.481 841.52 149.075C835.834 149.313 830.134 149.42 824.427 149.42Z" fill="#FAC515"/>
<path d="M128.155 116.784C80.5543 116.784 39.2179 103.356 0.0766524 76.001L1.13584 71.6004C63.0706 114.881 130.629 122.993 220.186 97.9209C284.184 80.0092 350.355 61.4908 420.861 64.4999C477.918 66.9381 535.958 74.0862 592.081 80.9844C669.674 90.535 749.907 100.407 828.782 98.0042C871.136 96.7196 914.068 90.4279 955.586 84.3384C1007.32 76.7741 1060.82 68.9243 1113.78 70.6846C1135.74 71.4101 1157.86 73.7412 1179.26 75.9891C1212.46 79.4858 1246.8 83.0896 1281.02 80.7466C1312.67 78.57 1344.8 74.2764 1375.87 70.1256C1404.19 66.3434 1433.47 62.4304 1462.33 60.1231C1526.62 54.9969 1596.51 58.898 1676.02 72.0761L1676.89 72.2189C1756.41 85.3851 1838.64 99.0032 1918.72 71.4696L1919.27 76.1318C1838.79 103.82 1756.35 90.1663 1676.62 76.9525L1675.75 76.8098C1596.39 63.6674 1526.62 59.7663 1462.47 64.8805C1433.64 67.176 1404.39 71.089 1376.09 74.8711C1345 79.022 1312.85 83.3156 1281.13 85.504C1246.77 87.8589 1212.36 84.2433 1179.09 80.7466C1157.72 78.4987 1135.63 76.1794 1113.73 75.4539C1060.93 73.7056 1007.49 81.5315 955.823 89.1077C914.263 95.1973 871.282 101.501 828.831 102.785C749.824 105.176 669.527 95.2924 591.872 85.7419C535.784 78.8436 477.779 71.7074 420.785 69.2692C350.55 66.2602 284.504 84.7428 220.632 102.619C187.024 112.027 156.482 116.784 128.155 116.784Z" fill="#FAC515"/>
<path d="M134.636 87.0739C125.877 87.0739 117.34 86.5982 108.999 85.6348C69.7673 81.1509 34.1241 66.3196 0.0348333 40.2965L1.17068 35.9553C64.0044 83.9221 131.695 94.1625 220.66 69.1503C232.325 65.8677 244.171 62.2401 255.62 58.7315C273.815 53.1534 292.629 47.3851 311.263 42.8655C348.585 33.8145 385.211 33.2079 419.238 33.9215C473.702 35.0514 529.08 38.5838 582.632 41.9973C656.016 46.6833 731.901 51.524 806.518 50.2395C852.022 49.4664 898.257 46.0054 942.966 42.6633C997.89 38.56 1054.69 34.314 1110.65 34.9919C1134.93 35.2893 1159.56 36.7641 1183.37 38.1794C1215.32 40.0943 1248.36 42.0686 1280.95 41.2123C1312.76 40.3797 1345.1 38.4649 1376.37 36.6095C1404.84 34.9206 1434.28 33.1722 1463.25 32.2564C1530.28 30.1275 1600 31.9947 1676.39 37.9653C1755.83 44.1857 1837.99 50.6082 1918.84 35.7293L1919.14 40.463C1838.07 55.3775 1755.81 48.9431 1676.25 42.7228C1599.92 36.7522 1530.27 34.8849 1463.29 37.0138C1434.35 37.9296 1404.92 39.678 1376.46 41.3669C1345.17 43.2223 1312.83 45.1372 1280.98 45.9697C1248.33 46.8142 1215.25 44.8398 1183.27 42.9368C1159.47 41.5096 1134.86 40.0467 1110.62 39.7494C1054.74 39.0714 997.967 43.3174 943.077 47.4207C898.347 50.7628 852.091 54.2239 806.539 54.9969C731.852 56.2696 655.939 51.4289 582.52 46.7428C528.982 43.3293 473.626 39.7969 419.196 38.667C385.281 37.9653 348.78 38.56 311.646 47.5635C293.068 52.0711 274.275 57.8276 256.108 63.4057C244.645 66.9143 232.799 70.5537 221.106 73.8364C189.644 82.6971 161.116 87.0739 134.636 87.0739Z" fill="#FAC515"/>
<path d="M138.315 56.222C128.246 56.222 118.441 55.5559 108.86 54.2358C69.7812 48.8242 34.1729 32.5775 0 4.58003L1.20552 0.286451C63.9974 51.7381 133.848 63.8577 221.05 38.4411C233.628 34.7778 246.387 30.6627 258.721 26.6783C275.961 21.1121 293.786 15.3556 311.437 10.729C347.443 1.2974 383.253 0.024792 416.555 0.0723663C467.201 0.131834 518.69 0.345918 568.486 0.536215C635.57 0.809768 704.941 1.08332 773.168 1.01196C904.633 0.869233 1038.3 0.655152 1167.56 0.452961C1266.27 0.298344 1364.97 0.143724 1463.68 0.0128948C1519.62 -0.0584667 1576.49 0.179407 1631.5 0.405385C1725.72 0.797874 1823.15 1.20225 1918.98 0.0604702L1919 4.8179C1823.16 5.95969 1725.72 5.55531 1631.49 5.16282C1576.49 4.93684 1519.61 4.69897 1463.68 4.77033C1364.97 4.90116 1266.26 5.05578 1167.56 5.2104C1038.3 5.41259 904.633 5.62667 773.168 5.76939C704.941 5.85265 635.563 5.5672 568.479 5.29365C518.683 5.09146 467.194 4.88926 416.548 4.8298C383.344 4.77033 347.673 6.04294 311.855 15.4389C294.253 20.0536 276.449 25.7982 259.23 31.3525C246.882 35.3368 234.116 39.4639 221.51 43.1271C191.512 51.8808 164.028 56.222 138.315 56.222Z" fill="#FAC515"/>
</g>
</svg>
