<svg width="40" height="40" viewBox="0 0 40 40" fill="none" xmlns="http://www.w3.org/2000/svg">
<path d="M30.6382 13.3333H32.4065C33.8398 13.3333 34.9998 14.4933 34.9998 15.9266V32.4083C34.9998 33.8399 33.8398 34.9999 32.4065 34.9999H14.2598C12.8265 34.9999 11.6665 33.8399 11.6665 32.4066V29.9999" stroke="#EAAA08" stroke-width="2" stroke-linecap="round" stroke-linejoin="round"/>
<path fill-rule="evenodd" clip-rule="evenodd" d="M6.66849 30.0001H25.5218C26.6368 30.0001 27.6768 29.4434 28.2952 28.5151L29.5185 26.6784C30.2485 25.5834 30.6385 24.2967 30.6385 22.9801V10.0001C30.6385 8.15841 29.1468 6.66675 27.3052 6.66675H10.6385C8.79682 6.66675 7.30516 8.15841 7.30516 10.0001V21.7601C7.30516 22.7951 7.06349 23.8151 6.60182 24.7417L5.17849 27.5884C4.62349 28.6967 5.43016 30.0001 6.66849 30.0001Z" stroke="#EAAA08" stroke-width="2" stroke-linecap="round" stroke-linejoin="round"/>
<path d="M13.9666 5V8.33333" stroke="#EAAA08" stroke-width="2" stroke-linecap="round" stroke-linejoin="round"/>
<path d="M23.9666 5V8.33333" stroke="#EAAA08" stroke-width="2" stroke-linecap="round" stroke-linejoin="round"/>
<path d="M13.6499 15.0001H23.6499" stroke="#EAAA08" stroke-width="2" stroke-linecap="round" stroke-linejoin="round"/>
<path d="M13.6499 21.6666H23.6499" stroke="#EAAA08" stroke-width="2" stroke-linecap="round" stroke-linejoin="round"/>
</svg>
